<svg id="svg" version="1.1" xmlns="http://www.w3.org/2000/svg" xmlns:xlink="http://www.w3.org/1999/xlink" width="400" height="400" viewBox="0, 0, 400,400"><g id="svgg"><path id="path0" d="M178.413 0.283 C 176.550 0.367,174.926 0.597,174.804 0.794 C 174.682 0.991,173.275 1.191,171.677 1.237 C 170.079 1.284,168.677 1.475,168.562 1.661 C 168.447 1.847,167.589 2.000,166.656 2.000 C 165.723 2.000,164.789 2.170,164.580 2.377 C 164.371 2.585,163.264 2.796,162.120 2.848 C 160.976 2.899,160.132 3.089,160.244 3.271 C 160.356 3.452,159.547 3.600,158.447 3.600 C 157.347 3.600,156.336 3.780,156.200 4.000 C 156.064 4.220,155.243 4.400,154.376 4.400 C 153.509 4.400,152.800 4.580,152.800 4.800 C 152.800 5.020,152.069 5.200,151.176 5.200 C 150.196 5.200,149.651 5.358,149.800 5.600 C 150.010 5.939,147.846 6.242,146.670 6.037 C 146.489 6.006,146.455 6.165,146.594 6.390 C 146.745 6.635,146.365 6.800,145.647 6.800 C 144.987 6.800,144.336 6.980,144.200 7.200 C 144.064 7.420,143.323 7.600,142.553 7.600 C 141.721 7.600,141.253 7.762,141.400 8.000 C 141.547 8.238,141.079 8.400,140.247 8.400 C 139.477 8.400,138.734 8.583,138.596 8.807 C 138.458 9.030,138.169 9.105,137.955 8.972 C 137.740 8.840,137.343 8.915,137.073 9.140 C 136.802 9.365,136.135 9.622,135.590 9.712 C 135.046 9.801,134.097 10.082,133.482 10.334 C 132.868 10.587,131.878 10.913,131.282 11.058 C 130.687 11.204,130.110 11.431,130.000 11.564 C 129.704 11.919,127.048 12.800,126.272 12.800 C 125.902 12.800,125.599 12.935,125.597 13.100 C 125.593 13.506,123.614 14.400,122.720 14.400 C 122.324 14.400,122.000 14.580,122.000 14.800 C 122.000 15.020,121.550 15.200,121.000 15.200 C 120.450 15.200,120.000 15.336,120.000 15.502 C 120.000 15.669,119.415 16.041,118.700 16.331 C 117.985 16.620,115.960 17.541,114.200 18.377 C 112.440 19.214,110.415 20.145,109.700 20.447 C 108.985 20.748,108.400 21.131,108.400 21.298 C 108.400 21.464,108.040 21.600,107.600 21.600 C 107.160 21.600,106.800 21.780,106.800 22.000 C 106.800 22.220,106.429 22.400,105.976 22.400 C 105.523 22.400,105.264 22.580,105.400 22.800 C 105.536 23.020,105.367 23.200,105.024 23.200 C 104.681 23.200,104.400 23.380,104.400 23.600 C 104.400 23.820,104.040 24.000,103.600 24.000 C 103.160 24.000,102.800 24.180,102.800 24.400 C 102.800 24.620,102.485 24.807,102.100 24.816 C 101.148 24.837,97.153 27.020,97.476 27.342 C 97.617 27.484,97.343 27.600,96.867 27.600 C 96.390 27.600,96.000 27.755,96.000 27.944 C 96.000 28.134,95.145 28.719,94.100 29.244 C 93.055 29.770,91.909 30.515,91.553 30.900 C 91.197 31.285,90.678 31.600,90.400 31.600 C 90.122 31.600,89.603 31.916,89.247 32.303 C 88.891 32.689,88.105 33.260,87.500 33.570 C 86.895 33.881,86.400 34.285,86.400 34.468 C 86.400 34.650,86.128 34.800,85.796 34.800 C 85.464 34.800,84.628 35.340,83.937 36.000 C 83.246 36.660,82.520 37.200,82.322 37.200 C 82.125 37.200,81.510 37.653,80.956 38.208 C 80.402 38.762,79.735 39.093,79.474 38.944 C 79.213 38.794,79.132 38.817,79.293 38.995 C 79.583 39.316,77.695 41.199,77.083 41.200 C 76.749 41.200,76.345 41.517,74.404 43.300 C 73.746 43.905,73.060 44.400,72.880 44.400 C 72.700 44.400,71.650 45.255,70.547 46.300 C 68.024 48.690,66.507 49.963,66.334 49.837 C 66.260 49.783,64.556 51.417,62.547 53.469 C 60.538 55.521,58.969 57.200,59.061 57.200 C 59.153 57.200,58.817 57.626,58.314 58.146 C 57.811 58.667,57.355 59.057,57.300 59.013 C 57.148 58.892,49.714 66.169,49.752 66.400 C 49.788 66.614,48.882 67.735,47.100 69.682 C 46.495 70.344,46.000 71.046,46.000 71.242 C 46.000 71.439,45.752 71.600,45.449 71.600 C 45.145 71.600,44.682 72.119,44.419 72.753 C 44.157 73.387,43.550 74.275,43.071 74.725 C 41.885 75.841,41.200 76.704,41.200 77.083 C 41.199 77.695,39.316 79.583,38.995 79.293 C 38.817 79.132,38.794 79.213,38.944 79.474 C 39.093 79.735,38.762 80.402,38.208 80.956 C 37.653 81.510,37.200 82.152,37.200 82.382 C 37.200 82.612,37.020 82.800,36.800 82.800 C 36.580 82.800,36.400 83.070,36.400 83.400 C 36.400 83.730,36.220 84.000,36.000 84.000 C 35.780 84.000,35.600 84.281,35.600 84.624 C 35.600 84.993,35.412 85.131,35.138 84.962 C 34.873 84.798,34.784 84.851,34.930 85.086 C 35.069 85.311,34.737 86.014,34.192 86.648 C 33.647 87.282,33.201 88.025,33.200 88.300 C 33.200 88.575,33.050 88.800,32.868 88.800 C 32.685 88.800,32.281 89.295,31.970 89.900 C 31.660 90.505,31.121 91.270,30.772 91.600 C 30.424 91.930,29.884 92.785,29.572 93.500 C 29.260 94.215,28.869 94.800,28.702 94.800 C 28.536 94.800,28.400 95.070,28.400 95.400 C 28.400 95.730,28.220 96.000,28.000 96.000 C 27.780 96.000,27.600 96.193,27.600 96.429 C 27.600 96.664,27.328 97.129,26.996 97.461 C 26.664 97.793,26.495 98.230,26.620 98.432 C 26.745 98.635,26.690 98.800,26.498 98.800 C 26.081 98.800,24.800 101.377,24.800 102.214 C 24.800 102.536,24.620 102.800,24.400 102.800 C 24.180 102.800,24.000 103.160,24.000 103.600 C 24.000 104.040,23.848 104.400,23.663 104.400 C 23.477 104.400,22.895 105.255,22.368 106.300 C 21.842 107.345,21.318 108.290,21.205 108.400 C 20.968 108.630,20.298 110.035,19.549 111.871 C 19.264 112.570,18.843 113.036,18.615 112.907 C 18.387 112.778,18.328 112.814,18.484 112.987 C 18.641 113.160,18.326 114.095,17.784 115.065 C 17.243 116.035,16.800 117.094,16.800 117.420 C 16.800 117.966,16.070 119.533,15.598 120.000 C 15.487 120.110,15.155 120.920,14.861 121.800 C 14.011 124.340,13.428 125.600,13.102 125.600 C 12.936 125.600,12.800 125.873,12.800 126.206 C 12.800 127.176,11.834 130.000,11.503 130.000 C 11.336 130.000,11.200 130.450,11.200 131.000 C 11.200 131.550,11.020 132.000,10.800 132.000 C 10.580 132.000,10.400 132.414,10.400 132.920 C 10.400 133.426,10.184 134.056,9.920 134.320 C 9.656 134.584,9.562 134.800,9.710 134.800 C 9.859 134.800,9.789 135.295,9.555 135.900 C 9.320 136.505,9.040 137.360,8.930 137.800 C 8.286 140.396,7.925 141.928,7.729 142.905 C 7.607 143.513,7.349 144.108,7.154 144.229 C 6.959 144.349,6.800 144.876,6.800 145.400 C 6.800 145.924,6.620 146.464,6.400 146.600 C 6.180 146.736,6.000 147.456,6.000 148.200 C 6.000 148.944,5.820 149.664,5.600 149.800 C 5.380 149.936,5.200 150.667,5.200 151.424 C 5.200 152.181,5.020 152.800,4.800 152.800 C 4.580 152.800,4.400 153.509,4.400 154.376 C 4.400 155.243,4.220 156.064,4.000 156.200 C 3.780 156.336,3.600 157.326,3.600 158.400 C 3.600 159.474,3.420 160.464,3.200 160.600 C 2.980 160.736,2.800 161.557,2.800 162.424 C 2.800 163.291,2.620 164.000,2.400 164.000 C 2.178 164.000,2.000 165.059,2.000 166.376 C 2.000 167.683,1.820 168.864,1.600 169.000 C 1.380 169.136,1.200 170.371,1.200 171.744 C 1.200 173.207,0.993 174.447,0.700 174.740 C -0.013 175.452,-0.028 223.425,0.683 224.839 C 0.949 225.368,1.267 226.970,1.390 228.400 C 1.964 235.067,2.092 236.000,2.434 236.000 C 2.635 236.000,2.800 236.900,2.800 238.000 C 2.800 239.100,2.980 240.000,3.200 240.000 C 3.420 240.000,3.600 240.799,3.600 241.776 C 3.600 242.753,3.780 243.664,4.000 243.800 C 4.220 243.936,4.400 244.656,4.400 245.400 C 4.400 246.144,4.580 246.864,4.800 247.000 C 5.020 247.136,5.200 247.856,5.200 248.600 C 5.200 249.344,5.380 250.064,5.600 250.200 C 5.820 250.336,6.000 250.829,6.000 251.295 C 6.000 252.196,6.665 254.539,7.249 255.695 C 7.442 256.077,7.600 256.831,7.600 257.371 C 7.600 257.911,7.760 258.452,7.956 258.573 C 8.151 258.694,8.401 259.379,8.511 260.096 C 8.766 261.759,9.015 262.704,9.593 264.200 C 9.848 264.860,10.032 265.400,10.002 265.400 C 9.903 265.400,10.467 266.973,11.705 270.154 C 12.381 271.888,12.933 273.546,12.933 273.836 C 12.933 274.127,13.083 274.272,13.267 274.159 C 13.450 274.045,13.600 274.413,13.600 274.976 C 13.600 275.539,13.780 276.000,14.000 276.000 C 14.220 276.000,14.400 276.450,14.400 277.000 C 14.400 277.550,14.580 278.000,14.800 278.000 C 15.020 278.000,15.200 278.450,15.200 279.000 C 15.200 279.550,15.380 280.000,15.600 280.000 C 15.820 280.000,16.000 280.360,16.000 280.800 C 16.000 281.240,16.180 281.600,16.400 281.600 C 16.620 281.600,16.800 281.872,16.800 282.205 C 16.800 282.538,16.966 283.123,17.169 283.505 C 17.373 283.887,18.137 285.460,18.867 287.000 C 19.598 288.540,20.289 289.890,20.403 290.000 C 20.837 290.418,22.595 294.177,22.500 294.481 C 22.445 294.657,22.580 294.800,22.800 294.800 C 23.020 294.800,23.200 295.036,23.200 295.325 C 23.200 295.613,23.560 296.236,24.000 296.708 C 24.440 297.180,24.800 297.716,24.800 297.899 C 24.800 298.353,26.315 301.291,26.694 301.573 C 26.862 301.698,27.529 302.790,28.176 304.000 C 28.823 305.210,29.590 306.440,29.880 306.732 C 30.170 307.025,30.325 307.397,30.225 307.559 C 30.125 307.722,30.393 308.107,30.821 308.415 C 31.250 308.724,31.600 309.257,31.600 309.600 C 31.600 309.943,31.960 310.483,32.400 310.800 C 32.840 311.117,33.200 311.562,33.200 311.788 C 33.201 312.015,33.647 312.718,34.192 313.352 C 34.737 313.986,35.069 314.689,34.930 314.914 C 34.784 315.149,34.873 315.202,35.138 315.038 C 35.412 314.869,35.600 315.007,35.600 315.376 C 35.600 315.719,35.780 316.000,36.000 316.000 C 36.220 316.000,36.400 316.178,36.400 316.395 C 36.400 316.767,37.160 317.815,38.300 319.016 C 38.575 319.306,38.800 319.814,38.800 320.144 C 38.800 320.475,39.160 320.860,39.600 321.000 C 40.040 321.140,40.400 321.512,40.400 321.827 C 40.400 322.142,40.580 322.400,40.800 322.400 C 41.020 322.400,41.200 322.681,41.200 323.024 C 41.200 323.367,41.380 323.536,41.600 323.400 C 41.820 323.264,42.000 323.433,42.000 323.776 C 42.000 324.119,42.191 324.400,42.424 324.400 C 42.657 324.400,42.748 324.561,42.626 324.758 C 42.504 324.955,42.664 325.216,42.981 325.338 C 43.299 325.459,43.829 326.083,44.160 326.724 C 44.492 327.364,45.536 328.700,46.481 329.691 C 48.291 331.590,49.342 332.819,49.540 333.271 C 49.746 333.739,57.451 341.372,58.325 341.973 C 58.782 342.288,59.066 342.693,58.955 342.873 C 58.844 343.053,59.033 343.200,59.376 343.200 C 59.719 343.200,60.000 343.356,60.000 343.547 C 60.000 344.049,65.526 349.600,66.026 349.600 C 66.258 349.600,66.336 349.780,66.200 350.000 C 66.064 350.220,66.188 350.401,66.476 350.402 C 66.764 350.404,68.250 351.568,69.779 352.990 C 71.307 354.412,72.636 355.498,72.731 355.402 C 72.827 355.306,73.422 355.781,74.053 356.456 C 74.684 357.132,75.200 357.576,75.200 357.442 C 75.200 357.309,75.547 357.515,75.971 357.900 C 77.404 359.201,77.965 359.600,78.356 359.600 C 78.571 359.600,78.860 359.960,79.000 360.400 C 79.140 360.840,79.562 361.200,79.939 361.200 C 80.315 361.200,80.883 361.560,81.200 362.000 C 81.517 362.440,81.988 362.800,82.246 362.800 C 82.504 362.800,83.258 363.295,83.922 363.900 C 84.586 364.505,85.358 365.056,85.639 365.125 C 85.920 365.194,86.452 365.599,86.822 366.025 C 87.191 366.451,87.748 366.800,88.059 366.800 C 88.369 366.800,88.883 367.160,89.200 367.600 C 89.517 368.040,90.031 368.400,90.341 368.400 C 90.652 368.400,91.197 368.725,91.553 369.122 C 91.909 369.519,92.785 370.081,93.500 370.371 C 94.215 370.660,94.800 371.055,94.800 371.249 C 94.800 371.442,95.036 371.600,95.325 371.600 C 95.613 371.600,96.205 371.915,96.640 372.300 C 97.075 372.685,97.693 373.059,98.012 373.132 C 98.331 373.205,98.684 373.385,98.796 373.532 C 99.125 373.964,101.482 375.200,101.978 375.200 C 102.229 375.200,102.820 375.560,103.292 376.000 C 103.764 376.440,104.432 376.804,104.775 376.809 C 105.119 376.814,105.850 377.170,106.400 377.600 C 106.950 378.030,107.625 378.386,107.900 378.391 C 108.175 378.396,108.400 378.580,108.400 378.800 C 108.400 379.020,108.687 379.200,109.038 379.200 C 109.389 379.200,110.154 379.529,110.738 379.930 C 111.322 380.332,112.430 380.901,113.200 381.194 C 113.970 381.488,114.771 381.879,114.980 382.064 C 115.189 382.249,115.684 382.400,116.080 382.400 C 116.476 382.400,116.800 382.580,116.800 382.800 C 116.800 383.020,117.036 383.200,117.325 383.200 C 117.614 383.200,118.595 383.560,119.506 384.000 C 120.416 384.440,121.350 384.800,121.581 384.800 C 121.811 384.800,122.000 384.980,122.000 385.200 C 122.000 385.420,122.450 385.600,123.000 385.600 C 123.550 385.600,124.000 385.741,124.000 385.913 C 124.000 386.085,124.855 386.476,125.900 386.782 C 126.945 387.087,128.341 387.639,129.001 388.007 C 129.662 388.374,131.147 388.918,132.301 389.213 C 133.456 389.509,134.400 389.912,134.400 390.109 C 134.400 390.306,134.625 390.386,134.900 390.287 C 135.175 390.189,135.727 390.276,136.126 390.482 C 136.965 390.914,138.065 391.207,139.900 391.488 C 140.615 391.598,141.200 391.848,141.200 392.044 C 141.200 392.240,141.931 392.400,142.824 392.400 C 143.717 392.400,144.348 392.560,144.227 392.757 C 144.020 393.091,144.858 393.307,148.498 393.857 C 149.322 393.982,149.896 394.245,149.774 394.442 C 149.652 394.639,150.363 394.800,151.353 394.800 C 152.343 394.800,153.264 394.980,153.400 395.200 C 153.536 395.420,154.166 395.600,154.800 395.600 C 155.434 395.600,156.064 395.780,156.200 396.000 C 156.336 396.220,157.347 396.400,158.447 396.400 C 159.679 396.400,160.352 396.554,160.200 396.800 C 160.047 397.048,160.788 397.200,162.153 397.200 C 163.363 397.200,164.464 397.380,164.600 397.600 C 164.736 397.820,165.726 398.000,166.800 398.000 C 167.874 398.000,168.864 398.180,169.000 398.400 C 169.136 398.620,170.482 398.800,171.990 398.800 C 173.829 398.800,174.788 398.965,174.900 399.300 C 175.144 400.032,224.856 400.032,225.100 399.300 C 225.212 398.965,226.171 398.800,228.010 398.800 C 229.518 398.800,230.864 398.620,231.000 398.400 C 231.136 398.180,232.216 398.000,233.400 398.000 C 234.584 398.000,235.664 397.820,235.800 397.600 C 235.936 397.380,236.937 397.200,238.024 397.200 C 239.111 397.200,240.000 397.020,240.000 396.800 C 240.000 396.580,240.684 396.400,241.520 396.400 C 242.356 396.400,243.211 396.230,243.420 396.021 C 243.629 395.813,244.565 395.598,245.500 395.543 C 246.435 395.488,247.200 395.299,247.200 395.122 C 247.200 394.945,247.819 394.800,248.576 394.800 C 249.333 394.800,250.064 394.620,250.200 394.400 C 250.336 394.180,250.977 394.000,251.624 394.000 C 252.271 394.000,252.800 393.820,252.800 393.600 C 252.800 393.380,253.520 393.200,254.400 393.200 C 255.280 393.200,256.000 393.020,256.000 392.800 C 256.000 392.580,256.641 392.400,257.424 392.400 C 258.207 392.400,258.750 392.243,258.631 392.051 C 258.513 391.859,259.447 391.581,260.708 391.433 C 261.969 391.285,263.332 390.915,263.739 390.610 C 264.145 390.304,264.730 390.152,265.039 390.270 C 265.347 390.389,265.600 390.286,265.600 390.043 C 265.600 389.799,265.952 389.600,266.381 389.600 C 266.811 389.600,267.666 389.398,268.281 389.150 C 269.334 388.727,269.920 388.497,272.100 387.651 C 272.595 387.459,273.816 386.910,274.813 386.432 C 275.811 385.954,277.013 385.534,277.486 385.499 C 277.958 385.463,278.256 385.291,278.149 385.117 C 278.041 384.943,278.145 384.800,278.381 384.800 C 278.616 384.800,279.662 384.422,280.704 383.960 C 281.747 383.498,283.050 382.937,283.600 382.713 C 284.150 382.490,284.913 382.148,285.295 381.953 C 285.677 381.759,286.272 381.600,286.618 381.600 C 286.964 381.600,287.136 381.420,287.000 381.200 C 286.864 380.980,287.016 380.800,287.339 380.800 C 287.873 380.800,291.127 379.273,291.600 378.800 C 292.078 378.322,293.639 377.600,294.195 377.600 C 294.528 377.600,294.800 377.420,294.800 377.200 C 294.800 376.980,295.036 376.800,295.325 376.800 C 295.613 376.800,296.236 376.440,296.708 376.000 C 297.180 375.560,297.775 375.200,298.029 375.200 C 298.551 375.200,302.371 373.214,303.029 372.600 C 303.266 372.380,304.121 371.844,304.929 371.409 C 305.738 370.974,306.400 370.479,306.400 370.309 C 306.400 370.139,306.771 370.000,307.224 370.000 C 307.677 370.000,307.936 369.820,307.800 369.600 C 307.664 369.380,307.833 369.200,308.176 369.200 C 308.519 369.200,308.800 369.020,308.800 368.800 C 308.800 368.580,309.036 368.400,309.325 368.400 C 309.613 368.400,310.236 368.040,310.708 367.600 C 311.180 367.160,311.855 366.800,312.207 366.800 C 312.559 366.800,312.736 366.620,312.600 366.400 C 312.464 366.180,312.633 366.000,312.976 366.000 C 313.319 366.000,313.600 365.820,313.600 365.600 C 313.600 365.380,313.836 365.200,314.125 365.200 C 314.413 365.200,315.036 364.840,315.508 364.400 C 315.980 363.960,316.554 363.600,316.783 363.600 C 317.012 363.600,317.200 363.420,317.200 363.200 C 317.200 362.980,317.398 362.800,317.640 362.800 C 317.881 362.800,318.601 362.241,319.240 361.558 C 319.878 360.874,320.400 360.533,320.400 360.800 C 320.400 361.067,320.922 360.726,321.560 360.042 C 322.199 359.359,322.909 358.800,323.138 358.800 C 323.367 358.800,323.835 358.400,324.177 357.911 C 324.520 357.422,324.800 357.154,324.800 357.314 C 324.800 357.475,325.367 357.065,326.059 356.403 C 326.752 355.742,327.455 355.200,327.623 355.200 C 327.790 355.200,328.735 354.435,329.724 353.500 C 330.712 352.565,332.278 351.170,333.204 350.400 C 334.130 349.630,336.401 347.470,338.250 345.600 C 340.098 343.730,341.770 342.046,341.964 341.859 C 345.778 338.169,349.292 334.570,350.400 333.218 C 351.170 332.278,352.565 330.715,353.500 329.744 C 354.435 328.773,355.200 327.830,355.200 327.649 C 355.200 327.467,355.742 326.752,356.403 326.059 C 357.065 325.367,357.488 324.800,357.342 324.800 C 357.197 324.800,357.465 324.464,357.939 324.053 C 358.412 323.642,358.800 323.102,358.800 322.853 C 358.800 322.604,358.980 322.400,359.200 322.400 C 359.420 322.400,359.600 322.158,359.600 321.861 C 359.600 321.565,360.005 321.127,360.500 320.888 C 360.995 320.649,361.156 320.442,360.858 320.427 C 360.546 320.412,360.844 319.906,361.558 319.240 C 362.241 318.601,362.800 317.881,362.800 317.640 C 362.800 317.398,362.980 317.200,363.200 317.200 C 363.420 317.200,363.600 316.970,363.600 316.688 C 363.600 316.407,363.960 315.917,364.400 315.600 C 364.840 315.283,365.200 314.703,365.200 314.312 C 365.200 313.920,365.380 313.600,365.600 313.600 C 365.820 313.600,366.000 313.319,366.000 312.976 C 366.000 312.633,366.180 312.464,366.400 312.600 C 366.620 312.736,366.800 312.559,366.800 312.207 C 366.800 311.855,367.160 311.180,367.600 310.708 C 368.040 310.236,368.400 309.613,368.400 309.325 C 368.400 309.036,368.580 308.800,368.800 308.800 C 369.020 308.800,369.200 308.519,369.200 308.176 C 369.200 307.833,369.380 307.664,369.600 307.800 C 369.820 307.936,370.000 307.677,370.000 307.224 C 370.000 306.771,370.135 306.400,370.301 306.400 C 370.466 306.400,371.031 305.590,371.556 304.600 C 372.081 303.610,372.666 302.800,372.856 302.800 C 373.045 302.800,373.200 302.455,373.200 302.033 C 373.200 301.612,373.335 301.207,373.500 301.133 C 373.908 300.952,375.200 298.587,375.200 298.022 C 375.200 297.771,375.560 297.180,376.000 296.708 C 376.440 296.236,376.800 295.512,376.800 295.101 C 376.800 294.689,376.980 294.464,377.200 294.600 C 377.420 294.736,377.600 294.477,377.600 294.024 C 377.600 293.571,377.780 293.200,378.000 293.200 C 378.220 293.200,378.400 292.840,378.400 292.400 C 378.400 291.960,378.580 291.600,378.800 291.600 C 379.020 291.600,379.200 291.255,379.200 290.833 C 379.200 290.412,379.336 290.007,379.502 289.933 C 379.668 289.860,380.407 288.540,381.144 287.000 C 381.881 285.460,382.645 283.887,382.842 283.505 C 383.039 283.123,383.200 282.538,383.200 282.205 C 383.200 281.872,383.380 281.600,383.600 281.600 C 383.820 281.600,384.000 281.251,384.000 280.824 C 384.000 280.397,384.180 279.936,384.400 279.800 C 384.620 279.664,384.800 279.103,384.800 278.553 C 384.800 277.988,384.974 277.660,385.200 277.800 C 385.427 277.940,385.600 277.604,385.600 277.024 C 385.600 276.461,385.780 276.000,386.000 276.000 C 386.220 276.000,386.400 275.728,386.400 275.395 C 386.400 275.062,386.559 274.477,386.753 274.095 C 387.095 273.422,387.625 272.163,388.350 270.300 C 388.543 269.805,388.903 268.897,389.150 268.281 C 389.398 267.666,389.600 266.811,389.600 266.381 C 389.600 265.952,389.780 265.600,390.000 265.600 C 390.220 265.600,390.400 265.071,390.400 264.424 C 390.400 263.777,390.567 263.144,390.772 263.017 C 390.977 262.891,391.267 261.802,391.418 260.598 C 391.568 259.394,391.851 258.508,392.046 258.628 C 392.240 258.749,392.400 258.222,392.400 257.457 C 392.400 256.692,392.572 256.007,392.782 255.933 C 392.993 255.860,393.210 255.125,393.264 254.300 C 393.319 253.475,393.507 252.800,393.682 252.800 C 393.857 252.800,394.000 252.271,394.000 251.624 C 394.000 250.977,394.180 250.336,394.400 250.200 C 394.620 250.064,394.800 249.333,394.800 248.576 C 394.800 247.819,394.943 247.200,395.118 247.200 C 395.293 247.200,395.482 246.525,395.537 245.701 C 395.593 244.876,395.810 244.030,396.019 243.821 C 396.229 243.611,396.400 242.666,396.400 241.720 C 396.400 240.774,396.580 240.000,396.800 240.000 C 397.020 240.000,397.200 239.111,397.200 238.024 C 397.200 236.937,397.380 235.936,397.600 235.800 C 397.820 235.664,398.000 234.584,398.000 233.400 C 398.000 232.216,398.180 231.136,398.400 231.000 C 398.620 230.864,398.800 229.518,398.800 228.010 C 398.800 226.171,398.965 225.212,399.300 225.100 C 399.693 224.969,399.800 219.591,399.800 200.000 C 399.800 180.409,399.693 175.031,399.300 174.900 C 398.965 174.788,398.800 173.829,398.800 171.990 C 398.800 170.482,398.620 169.136,398.400 169.000 C 398.180 168.864,398.000 167.784,398.000 166.600 C 398.000 165.416,397.820 164.336,397.600 164.200 C 397.380 164.064,397.200 163.164,397.200 162.200 C 397.200 161.236,397.020 160.336,396.800 160.200 C 396.580 160.064,396.400 159.164,396.400 158.200 C 396.400 157.236,396.220 156.336,396.000 156.200 C 395.780 156.064,395.600 155.344,395.600 154.600 C 395.600 153.856,395.420 153.136,395.200 153.000 C 394.980 152.864,394.800 152.144,394.800 151.400 C 394.800 150.656,394.620 149.936,394.400 149.800 C 394.180 149.664,394.000 148.944,394.000 148.200 C 394.000 147.456,393.820 146.736,393.600 146.600 C 393.380 146.464,393.200 145.813,393.200 145.153 C 393.200 144.455,393.033 144.056,392.800 144.200 C 392.563 144.346,392.400 143.893,392.400 143.090 C 392.400 142.344,392.276 141.610,392.125 141.459 C 391.779 141.112,390.369 136.039,390.358 135.100 C 390.354 134.715,390.181 134.400,389.975 134.400 C 389.769 134.400,389.600 134.048,389.600 133.619 C 389.600 132.838,389.331 132.070,387.953 128.925 C 387.550 128.004,386.992 126.519,386.713 125.625 C 386.433 124.731,386.069 124.000,385.903 124.000 C 385.736 124.000,385.600 123.644,385.600 123.210 C 385.600 122.775,385.241 121.830,384.801 121.110 C 384.362 120.389,384.002 119.485,384.001 119.100 C 384.001 118.715,383.820 118.400,383.600 118.400 C 383.380 118.400,383.200 118.040,383.200 117.600 C 383.200 117.160,383.020 116.800,382.800 116.800 C 382.580 116.800,382.400 116.339,382.400 115.776 C 382.400 115.196,382.227 114.860,382.000 115.000 C 381.780 115.136,381.600 114.955,381.600 114.598 C 381.600 113.820,379.175 108.656,378.720 108.467 C 378.544 108.393,378.400 108.003,378.400 107.600 C 378.400 107.197,378.265 106.807,378.100 106.733 C 377.935 106.660,377.367 105.745,376.837 104.700 C 376.308 103.655,375.723 102.800,375.537 102.800 C 375.352 102.800,375.200 102.529,375.200 102.197 C 375.200 101.522,373.259 97.675,372.526 96.898 C 372.266 96.621,371.938 96.036,371.799 95.598 C 371.660 95.159,371.378 94.800,371.173 94.800 C 370.968 94.800,370.800 94.530,370.800 94.200 C 370.800 93.870,370.620 93.600,370.400 93.600 C 370.180 93.600,370.000 93.280,370.000 92.888 C 370.000 92.497,369.640 91.917,369.200 91.600 C 368.760 91.283,368.400 90.743,368.400 90.400 C 368.400 90.057,368.040 89.517,367.600 89.200 C 367.160 88.883,366.800 88.385,366.800 88.094 C 366.800 87.802,366.347 87.110,365.792 86.556 C 365.238 86.002,364.906 85.352,365.054 85.112 C 365.215 84.851,365.138 84.791,364.862 84.962 C 364.588 85.131,364.400 84.993,364.400 84.624 C 364.400 84.281,364.220 84.000,364.000 84.000 C 363.780 84.000,363.599 83.775,363.598 83.500 C 363.597 83.225,363.057 82.425,362.398 81.722 C 361.739 81.019,361.200 80.236,361.200 79.982 C 361.200 79.729,360.660 79.017,360.000 78.400 C 359.340 77.783,358.800 77.091,358.800 76.862 C 358.800 76.633,358.400 76.165,357.911 75.823 C 357.422 75.480,357.160 75.200,357.329 75.200 C 357.498 75.200,357.178 74.742,356.618 74.182 C 356.058 73.622,355.599 73.037,355.598 72.882 C 355.597 72.727,354.811 71.772,353.853 70.760 C 352.894 69.748,351.664 68.264,351.120 67.462 C 350.575 66.660,350.010 66.123,349.865 66.269 C 349.719 66.414,349.600 66.336,349.600 66.095 C 349.600 65.854,348.070 64.127,346.200 62.257 C 344.330 60.387,342.800 58.971,342.800 59.110 C 342.800 59.249,342.485 58.950,342.100 58.445 C 341.330 57.436,333.400 49.393,333.400 49.621 C 333.400 49.855,331.587 48.316,329.724 46.500 C 328.764 45.565,327.804 44.800,327.589 44.800 C 327.375 44.800,327.200 44.620,327.200 44.400 C 327.200 44.180,326.962 44.000,326.672 44.000 C 326.382 44.000,325.753 43.550,325.275 43.000 C 324.797 42.450,324.123 42.000,323.779 42.000 C 323.435 42.000,323.264 41.820,323.400 41.600 C 323.536 41.380,323.431 41.200,323.167 41.200 C 322.903 41.200,322.171 40.660,321.540 40.000 C 320.909 39.340,320.213 38.800,319.993 38.800 C 319.773 38.800,319.028 38.260,318.337 37.600 C 317.646 36.940,316.838 36.400,316.541 36.400 C 316.243 36.400,316.000 36.220,316.000 36.000 C 316.000 35.780,315.719 35.600,315.376 35.600 C 315.007 35.600,314.869 35.412,315.038 35.138 C 315.202 34.873,315.149 34.784,314.914 34.930 C 314.689 35.069,313.986 34.737,313.352 34.192 C 312.718 33.647,311.975 33.201,311.700 33.200 C 311.425 33.200,311.200 33.050,311.200 32.868 C 311.200 32.685,310.705 32.281,310.100 31.970 C 309.495 31.660,308.709 31.089,308.353 30.703 C 307.997 30.316,307.495 30.000,307.237 30.000 C 306.723 30.000,304.281 28.382,304.067 27.900 C 303.993 27.735,303.678 27.600,303.367 27.600 C 303.055 27.600,302.800 27.409,302.800 27.176 C 302.800 26.943,302.632 26.856,302.428 26.983 C 302.223 27.109,301.941 27.029,301.802 26.804 C 301.533 26.369,298.485 24.800,297.908 24.800 C 297.720 24.800,297.180 24.440,296.708 24.000 C 296.236 23.560,295.613 23.200,295.325 23.200 C 295.036 23.200,294.800 23.020,294.800 22.800 C 294.800 22.580,294.440 22.400,294.000 22.400 C 293.560 22.400,293.200 22.220,293.200 22.000 C 293.200 21.780,292.855 21.600,292.433 21.600 C 292.012 21.600,291.607 21.465,291.533 21.300 C 291.351 20.889,287.924 19.198,287.276 19.199 C 286.988 19.200,286.864 19.020,287.000 18.800 C 287.136 18.580,286.958 18.400,286.604 18.400 C 286.251 18.400,285.216 18.040,284.306 17.600 C 283.395 17.160,282.414 16.800,282.125 16.800 C 281.836 16.800,281.600 16.620,281.600 16.400 C 281.600 16.180,281.240 16.000,280.800 16.000 C 280.360 16.000,280.000 15.820,280.000 15.600 C 280.000 15.380,279.539 15.200,278.976 15.200 C 278.413 15.200,278.040 15.058,278.148 14.885 C 278.255 14.712,277.860 14.530,277.271 14.481 C 276.682 14.433,276.140 14.215,276.067 13.997 C 275.993 13.778,275.488 13.600,274.943 13.600 C 274.296 13.600,274.052 13.440,274.238 13.138 C 274.396 12.882,274.350 12.784,274.133 12.918 C 273.918 13.050,273.302 12.930,272.763 12.651 C 272.224 12.371,270.932 11.891,269.891 11.584 C 268.851 11.277,268.000 10.874,268.000 10.689 C 268.000 10.504,267.852 10.444,267.671 10.556 C 267.491 10.668,266.861 10.509,266.271 10.203 C 265.682 9.898,265.200 9.722,265.200 9.814 C 265.200 9.905,264.705 9.789,264.100 9.555 C 262.706 9.015,261.734 8.762,260.100 8.512 C 259.385 8.402,258.800 8.191,258.800 8.043 C 258.800 7.896,258.305 7.737,257.700 7.691 C 257.095 7.646,256.240 7.451,255.800 7.259 C 254.271 6.593,252.138 6.000,251.272 6.000 C 250.792 6.000,250.400 5.820,250.400 5.600 C 250.400 5.380,249.691 5.200,248.824 5.200 C 247.957 5.200,247.136 5.020,247.000 4.800 C 246.864 4.580,246.144 4.400,245.400 4.400 C 244.656 4.400,243.936 4.220,243.800 4.000 C 243.664 3.780,242.753 3.600,241.776 3.600 C 240.799 3.600,240.000 3.420,240.000 3.200 C 240.000 2.980,239.100 2.800,238.000 2.800 C 236.900 2.800,236.000 2.635,236.000 2.434 C 236.000 2.233,234.830 1.963,233.400 1.834 C 231.970 1.705,229.585 1.493,228.100 1.363 C 226.615 1.233,225.150 0.920,224.845 0.668 C 224.303 0.221,186.748 -0.090,178.413 0.283 M157.747 89.591 C 158.326 90.467,158.800 91.284,158.800 91.408 C 158.800 91.532,159.160 92.020,159.600 92.492 C 160.040 92.964,160.400 93.587,160.400 93.875 C 160.400 94.164,160.580 94.400,160.800 94.400 C 161.020 94.400,161.200 94.588,161.200 94.818 C 161.200 95.048,162.100 96.570,163.200 98.200 C 164.300 99.830,165.200 101.256,165.200 101.370 C 165.200 101.630,168.960 107.532,169.806 108.600 C 170.254 109.165,170.503 109.253,170.654 108.900 C 170.771 108.625,171.212 108.400,171.633 108.400 C 172.055 108.400,172.401 108.265,172.403 108.100 C 172.405 107.935,172.810 107.606,173.303 107.369 C 175.184 106.467,181.009 103.391,181.200 103.200 C 181.310 103.090,183.020 102.160,185.000 101.133 C 186.980 100.106,189.353 98.849,190.272 98.339 C 191.192 97.828,192.046 97.512,192.169 97.636 C 192.853 98.320,193.200 103.231,193.200 112.215 L 193.200 122.322 194.460 122.761 C 195.233 123.031,199.438 123.207,205.360 123.217 C 219.515 123.243,219.620 123.279,217.442 127.327 C 216.592 128.907,215.336 131.280,214.651 132.600 C 213.966 133.920,213.313 135.090,213.200 135.200 C 213.087 135.310,212.411 136.525,211.698 137.900 C 210.984 139.275,209.815 141.525,209.100 142.900 C 208.385 144.275,207.665 145.460,207.500 145.533 C 206.883 145.807,207.240 146.360,208.561 147.176 L 209.922 148.017 213.061 146.570 C 214.787 145.774,216.513 144.960,216.895 144.762 C 217.277 144.563,217.941 144.400,218.371 144.400 C 218.801 144.400,219.264 144.220,219.400 144.000 C 219.536 143.780,220.166 143.600,220.800 143.600 C 221.434 143.600,222.064 143.420,222.200 143.200 C 222.336 142.980,223.157 142.800,224.024 142.800 C 224.891 142.800,225.600 142.635,225.600 142.434 C 225.600 141.674,241.415 140.855,242.138 141.578 C 242.370 141.810,243.593 142.000,244.856 142.000 C 246.119 142.000,247.264 142.180,247.400 142.400 C 247.536 142.620,248.357 142.800,249.224 142.800 C 250.091 142.800,250.800 142.980,250.800 143.200 C 250.800 143.420,251.242 143.600,251.781 143.600 C 252.321 143.600,253.266 143.802,253.881 144.050 C 254.497 144.297,255.450 144.681,256.000 144.903 C 256.550 145.125,257.360 145.435,257.800 145.592 C 265.564 148.354,272.985 154.094,279.800 162.609 C 280.460 163.434,281.165 164.399,281.366 164.754 C 281.567 165.109,281.861 165.490,282.019 165.600 C 282.414 165.875,284.146 168.890,285.658 171.935 C 286.351 173.329,287.206 174.558,287.559 174.664 C 287.911 174.771,288.513 175.025,288.895 175.229 C 289.277 175.433,290.042 175.600,290.595 175.600 C 291.148 175.600,291.600 175.780,291.600 176.000 C 291.600 176.220,291.962 176.400,292.405 176.400 C 292.848 176.400,293.523 176.559,293.905 176.753 C 294.287 176.948,295.140 177.352,295.800 177.653 C 296.460 177.953,297.090 178.289,297.200 178.399 C 297.310 178.510,298.030 178.919,298.800 179.309 C 301.739 180.798,306.004 184.469,308.417 187.586 C 309.178 188.568,310.115 189.727,310.500 190.162 C 310.885 190.596,311.200 191.172,311.200 191.442 C 311.200 191.712,311.336 191.993,311.502 192.067 C 311.784 192.191,314.126 196.826,314.803 198.600 C 315.110 199.404,315.565 201.059,316.398 204.400 C 317.145 207.396,316.616 218.219,315.606 220.600 C 315.420 221.040,315.033 222.255,314.746 223.300 C 314.460 224.345,314.085 225.200,313.913 225.200 C 313.741 225.200,313.600 225.465,313.600 225.789 C 313.600 226.113,313.142 227.148,312.582 228.089 C 312.023 229.030,311.462 230.115,311.336 230.500 C 311.210 230.885,310.948 231.200,310.753 231.200 C 310.559 231.200,310.400 231.378,310.400 231.595 C 310.400 232.898,301.456 241.580,300.100 241.595 C 299.825 241.598,299.600 241.780,299.600 242.000 C 299.600 242.220,299.345 242.400,299.033 242.400 C 298.722 242.400,298.407 242.535,298.333 242.700 C 298.101 243.223,293.694 245.221,291.000 246.025 C 290.120 246.287,288.987 246.659,288.481 246.851 C 287.976 247.043,286.806 247.214,285.881 247.230 C 282.892 247.285,281.523 248.045,280.341 250.307 C 279.318 252.266,276.916 255.986,276.407 256.400 C 276.272 256.510,275.725 257.230,275.192 258.000 C 272.540 261.830,263.774 269.741,260.066 271.650 C 259.480 271.952,258.910 272.290,258.800 272.402 C 258.352 272.857,253.448 275.200,252.944 275.200 C 252.645 275.200,252.400 275.380,252.400 275.600 C 252.400 275.820,252.128 276.000,251.795 276.000 C 251.462 276.000,250.787 276.208,250.295 276.462 C 248.374 277.456,247.984 277.600,247.229 277.600 C 246.799 277.600,246.336 277.780,246.200 278.000 C 246.064 278.220,245.344 278.400,244.600 278.400 C 243.856 278.400,243.136 278.580,243.000 278.800 C 242.864 279.020,242.054 279.200,241.200 279.200 C 240.346 279.200,239.552 279.354,239.435 279.543 C 238.878 280.444,227.790 280.787,222.400 280.070 C 215.898 279.205,215.398 279.116,215.020 278.759 C 214.811 278.562,214.147 278.400,213.544 278.400 C 212.941 278.400,212.336 278.220,212.200 278.000 C 212.064 277.780,211.524 277.600,211.000 277.600 C 210.476 277.600,209.936 277.420,209.800 277.200 C 209.664 276.980,209.113 276.800,208.576 276.800 C 208.039 276.800,207.600 276.620,207.600 276.400 C 207.600 276.180,207.328 276.000,206.995 276.000 C 206.662 276.000,206.077 275.843,205.695 275.651 C 200.804 273.197,199.341 272.377,196.600 270.557 C 189.851 266.075,185.106 261.372,180.702 254.800 C 179.596 253.150,178.554 251.647,178.386 251.460 C 178.218 251.274,177.208 251.966,176.140 252.999 C 173.995 255.077,168.608 258.800,167.749 258.800 C 167.447 258.800,167.200 258.980,167.200 259.200 C 167.200 259.420,166.750 259.600,166.200 259.600 C 165.650 259.600,165.200 259.780,165.200 260.000 C 165.200 260.220,164.761 260.400,164.224 260.400 C 163.687 260.400,163.136 260.580,163.000 260.800 C 162.864 261.020,162.259 261.200,161.656 261.200 C 161.053 261.200,160.389 261.363,160.180 261.562 C 159.882 261.846,156.245 262.244,152.600 262.390 C 150.946 262.457,145.541 261.827,145.368 261.548 C 145.250 261.357,144.623 261.200,143.976 261.200 C 143.329 261.200,142.800 261.020,142.800 260.800 C 142.800 260.580,142.260 260.400,141.600 260.400 C 140.940 260.400,140.400 260.220,140.400 260.000 C 140.400 259.780,140.040 259.600,139.600 259.600 C 139.160 259.600,138.800 259.420,138.800 259.200 C 138.800 258.980,138.528 258.800,138.195 258.800 C 137.639 258.800,136.076 258.077,135.600 257.599 C 135.490 257.489,134.875 257.129,134.234 256.799 C 132.887 256.107,127.498 250.908,125.839 248.700 C 124.691 247.172,121.686 246.489,121.000 247.600 C 120.860 247.827,118.870 248.000,116.400 248.000 C 113.930 248.000,111.940 247.827,111.800 247.600 C 111.664 247.380,110.663 247.200,109.576 247.200 C 108.489 247.200,107.600 247.020,107.600 246.800 C 107.600 246.580,107.195 246.397,106.700 246.394 C 105.665 246.387,103.606 245.695,101.639 244.693 C 100.890 244.312,100.035 244.000,99.739 244.000 C 99.442 244.000,99.200 243.820,99.200 243.600 C 99.200 243.380,98.930 243.200,98.600 243.200 C 98.270 243.200,98.000 243.020,98.000 242.800 C 98.000 242.580,97.730 242.400,97.400 242.400 C 97.070 242.400,96.800 242.220,96.800 242.000 C 96.800 241.780,96.546 241.600,96.235 241.600 C 93.754 241.600,85.929 231.542,84.486 226.500 C 84.219 225.565,83.807 224.125,83.571 223.300 C 82.862 220.825,83.534 210.735,84.444 210.173 C 84.640 210.052,84.800 209.622,84.800 209.217 C 84.800 207.267,88.517 201.538,92.056 198.036 C 93.076 197.026,94.023 195.826,94.160 195.370 C 94.298 194.913,95.504 192.483,96.841 189.970 C 98.179 187.456,100.112 183.780,101.136 181.800 C 102.161 179.820,103.090 178.110,103.200 178.000 C 103.644 177.556,105.200 174.289,105.200 173.800 C 105.200 173.512,104.166 172.693,102.902 171.980 C 101.639 171.267,99.286 169.809,97.673 168.742 C 96.061 167.674,94.655 166.800,94.549 166.800 C 94.443 166.800,93.296 166.080,92.000 165.200 C 90.704 164.320,89.454 163.600,89.222 163.600 C 88.990 163.600,88.800 163.420,88.800 163.200 C 88.800 162.980,88.616 162.800,88.391 162.800 C 87.763 162.800,84.886 160.800,84.657 160.205 C 84.461 159.694,88.317 156.800,89.194 156.800 C 89.417 156.800,89.600 156.620,89.600 156.400 C 89.600 156.180,89.836 156.000,90.125 156.000 C 90.413 156.000,91.007 155.685,91.445 155.300 C 91.883 154.915,92.682 154.342,93.220 154.027 C 93.759 153.712,95.550 152.615,97.200 151.590 C 106.368 145.890,105.732 146.557,104.338 144.112 C 103.864 143.280,102.583 140.890,101.491 138.800 C 98.044 132.203,96.736 129.811,96.363 129.420 C 96.163 129.211,96.000 128.716,96.000 128.320 C 96.000 127.924,95.820 127.600,95.600 127.600 C 95.380 127.600,95.200 127.240,95.200 126.800 C 95.200 126.360,95.041 126.000,94.847 126.000 C 94.652 126.000,94.401 125.647,94.288 125.215 C 93.853 123.551,94.724 123.412,107.161 123.157 C 113.672 123.024,119.021 122.889,119.047 122.857 C 119.073 122.826,119.205 119.515,119.340 115.500 C 119.751 103.354,120.090 97.991,120.463 97.761 C 120.792 97.558,126.101 100.111,129.800 102.251 C 130.680 102.761,132.750 103.849,134.400 104.671 C 136.050 105.492,137.490 106.263,137.600 106.384 C 137.710 106.506,138.889 107.157,140.221 107.833 C 142.838 109.160,143.115 109.101,144.066 107.015 C 144.320 106.457,144.680 106.000,144.864 106.000 C 145.049 106.000,145.200 105.806,145.200 105.568 C 145.200 105.330,145.809 104.205,146.553 103.068 C 149.136 99.119,152.000 94.335,152.000 93.968 C 152.000 93.766,152.158 93.600,152.351 93.600 C 152.545 93.600,152.927 93.060,153.200 92.400 C 153.473 91.740,153.855 91.200,154.049 91.200 C 154.242 91.200,154.400 91.003,154.400 90.762 C 154.400 90.187,155.963 88.000,156.374 88.000 C 156.550 88.000,157.168 88.716,157.747 89.591 M150.623 116.747 C 149.975 116.886,152.575 117.000,156.400 117.000 C 160.225 117.000,162.825 116.886,162.177 116.747 C 161.530 116.608,158.930 116.495,156.400 116.495 C 153.870 116.495,151.270 116.608,150.623 116.747 M146.200 117.600 C 145.181 118.038,146.232 118.038,147.600 117.600 C 148.404 117.343,148.443 117.277,147.800 117.268 C 147.360 117.262,146.640 117.411,146.200 117.600 M164.433 117.344 C 164.525 117.423,165.140 117.608,165.800 117.756 C 166.676 117.952,166.838 117.915,166.400 117.618 C 165.860 117.253,164.032 116.998,164.433 117.344 M168.200 118.400 C 169.396 118.914,170.395 118.914,169.600 118.400 C 169.270 118.187,168.640 118.022,168.200 118.034 L 167.400 118.056 168.200 118.400 M180.400 123.727 C 180.400 123.824,181.349 124.620,182.508 125.496 C 185.272 127.582,188.794 131.097,190.848 133.817 C 192.859 136.481,193.359 136.717,191.525 134.137 C 189.233 130.913,180.400 122.648,180.400 123.727 M127.939 127.100 C 126.520 128.365,124.564 130.300,123.591 131.400 C 122.619 132.500,123.438 131.820,125.412 129.890 C 127.385 127.959,129.540 126.025,130.200 125.592 C 130.860 125.159,131.202 124.804,130.959 124.803 C 130.717 124.801,129.358 125.835,127.939 127.100 M120.710 134.900 C 119.650 136.298,118.673 138.000,118.929 138.000 C 119.016 138.000,119.744 137.010,120.547 135.800 C 122.159 133.373,122.250 132.868,120.710 134.900 M192.809 136.700 C 192.814 136.865,193.185 137.450,193.633 138.000 L 194.448 139.000 193.814 137.700 C 193.211 136.465,192.789 136.045,192.809 136.700 M117.781 139.637 C 117.429 140.318,117.212 140.945,117.299 141.032 C 117.386 141.119,117.756 140.562,118.122 139.795 C 118.944 138.070,118.659 137.938,117.781 139.637 M113.301 153.800 C 113.305 154.680,113.387 154.993,113.483 154.495 C 113.579 153.998,113.575 153.278,113.475 152.895 C 113.375 152.513,113.296 152.920,113.301 153.800 M199.301 154.600 C 199.305 155.480,199.387 155.793,199.483 155.295 C 199.579 154.798,199.575 154.078,199.475 153.695 C 199.375 153.313,199.296 153.720,199.301 154.600 M112.951 160.000 C 112.951 162.530,113.016 163.565,113.096 162.300 C 113.175 161.035,113.175 158.965,113.096 157.700 C 113.016 156.435,112.951 157.470,112.951 160.000 M198.600 156.716 C 198.380 156.883,197.481 157.825,196.601 158.810 L 195.003 160.600 197.101 158.615 C 198.256 157.523,199.200 156.578,199.200 156.515 C 199.200 156.333,199.030 156.389,198.600 156.716 M164.700 159.882 C 165.195 159.978,166.005 159.978,166.500 159.882 C 166.995 159.787,166.590 159.709,165.600 159.709 C 164.610 159.709,164.205 159.787,164.700 159.882 M157.600 160.406 C 157.178 160.682,157.415 160.723,158.400 160.542 C 160.125 160.225,160.451 159.998,159.167 160.006 C 158.635 160.009,157.930 160.189,157.600 160.406 M171.233 160.143 C 171.325 160.221,172.030 160.401,172.800 160.542 C 173.785 160.723,174.022 160.682,173.600 160.406 C 173.058 160.050,170.837 159.803,171.233 160.143 M113.301 166.200 C 113.305 167.080,113.387 167.393,113.483 166.895 C 113.579 166.398,113.575 165.678,113.475 165.295 C 113.375 164.913,113.296 165.320,113.301 166.200 M190.783 165.831 C 190.380 166.586,189.990 166.815,189.328 166.688 C 188.831 166.593,188.519 166.670,188.636 166.858 C 189.061 167.546,190.326 167.173,190.986 166.165 C 191.359 165.596,191.590 165.056,191.499 164.966 C 191.409 164.875,191.086 165.265,190.783 165.831 M136.480 171.500 L 132.935 175.000 136.168 172.021 C 137.945 170.383,139.664 168.808,139.986 168.521 C 140.308 168.234,140.448 168.000,140.298 168.000 C 140.148 168.000,138.430 169.575,136.480 171.500 M116.400 177.347 C 116.400 177.780,118.388 181.600,118.613 181.600 C 118.723 181.600,118.339 180.655,117.759 179.500 C 116.643 177.279,116.400 176.894,116.400 177.347 M119.653 183.609 C 120.151 184.495,120.909 185.530,121.338 185.909 C 121.767 186.289,121.436 185.565,120.603 184.300 C 118.849 181.640,118.337 181.267,119.653 183.609 " stroke="none" fill="#fcd45c" fill-rule="evenodd"></path><path id="path1" d="M154.292 92.462 C 152.072 95.887,150.128 98.991,146.689 104.600 C 143.811 109.294,142.818 110.513,142.256 110.046 C 141.778 109.649,139.734 108.530,133.711 105.365 C 131.903 104.414,129.473 103.116,128.311 102.479 C 123.516 99.849,121.175 98.691,121.002 98.864 C 120.902 98.965,120.662 104.365,120.470 110.863 C 120.279 117.362,120.008 122.863,119.869 123.088 C 119.588 123.543,114.486 123.891,102.748 124.256 L 94.895 124.500 95.987 126.550 C 96.587 127.678,97.529 129.410,98.080 130.400 C 98.630 131.390,100.306 134.540,101.804 137.400 C 103.301 140.260,104.948 143.371,105.463 144.314 C 106.825 146.805,106.914 146.691,100.549 150.603 C 92.288 155.681,87.479 158.709,86.917 159.188 C 86.651 159.415,86.252 159.600,86.029 159.600 C 85.807 159.600,85.729 159.870,85.855 160.200 C 85.982 160.530,86.259 160.800,86.471 160.800 C 86.683 160.800,87.609 161.318,88.530 161.952 C 89.451 162.585,90.833 163.463,91.602 163.902 C 93.430 164.945,100.277 169.215,103.700 171.446 C 106.731 173.422,106.722 173.404,105.548 175.488 C 105.079 176.320,103.663 178.980,102.401 181.400 C 101.139 183.820,99.241 187.420,98.184 189.400 C 97.127 191.380,96.024 193.450,95.733 194.000 C 95.443 194.550,95.204 195.195,95.202 195.433 C 95.201 195.672,94.062 197.022,92.670 198.433 C 91.279 199.845,89.713 201.630,89.190 202.400 C 88.667 203.170,88.129 203.890,87.996 204.000 C 86.930 204.880,84.727 211.000,84.003 215.097 C 82.118 225.751,90.673 239.800,101.600 243.996 C 102.370 244.292,103.180 244.651,103.400 244.795 C 103.620 244.938,104.610 245.281,105.600 245.555 C 106.590 245.830,107.940 246.216,108.600 246.414 C 110.793 247.072,117.339 247.293,121.200 246.838 L 125.000 246.391 125.800 247.492 C 130.154 253.483,137.054 258.476,143.600 260.372 C 144.590 260.659,145.922 261.052,146.560 261.247 C 148.181 261.741,157.364 261.689,159.354 261.174 C 163.170 260.187,163.965 259.921,166.700 258.715 C 168.946 257.725,173.081 254.855,175.708 252.465 C 178.885 249.573,178.601 249.663,179.387 251.300 C 183.451 259.761,196.480 271.016,207.100 275.242 C 207.595 275.439,208.405 275.762,208.900 275.960 C 210.746 276.697,212.526 277.222,217.100 278.379 C 221.528 279.499,232.963 279.777,238.200 278.892 C 239.740 278.632,241.677 278.305,242.504 278.165 C 243.331 278.026,244.106 277.751,244.227 277.556 C 244.348 277.360,244.966 277.200,245.600 277.200 C 246.234 277.200,246.864 277.020,247.000 276.800 C 247.136 276.580,247.599 276.400,248.029 276.400 C 248.459 276.400,249.123 276.238,249.505 276.041 C 249.887 275.843,251.820 274.906,253.800 273.959 C 260.110 270.938,268.033 265.122,271.800 260.746 C 274.096 258.080,275.261 256.593,275.915 255.500 C 276.277 254.895,276.714 254.400,276.886 254.400 C 277.059 254.400,277.200 254.207,277.200 253.972 C 277.200 253.737,277.701 252.792,278.312 251.872 C 278.924 250.952,279.654 249.750,279.935 249.200 C 280.931 247.246,281.419 246.890,283.412 246.660 C 287.474 246.192,289.010 245.909,289.380 245.559 C 289.589 245.362,290.140 245.200,290.605 245.200 C 291.404 245.200,293.237 244.457,296.400 242.851 C 298.191 241.941,299.744 241.056,300.000 240.799 C 300.110 240.688,301.205 239.835,302.433 238.902 C 305.659 236.452,310.794 230.579,310.798 229.333 C 310.799 229.077,310.935 228.807,311.100 228.733 C 311.265 228.660,311.828 227.700,312.351 226.600 C 315.007 221.012,315.721 217.747,315.762 211.000 C 315.796 205.536,315.615 204.272,314.128 199.600 C 313.551 197.788,310.840 191.972,310.399 191.600 C 310.268 191.490,309.728 190.770,309.199 190.000 C 304.786 183.579,293.527 176.075,288.173 175.987 C 287.000 175.968,286.275 175.215,285.102 172.800 C 282.073 166.561,277.828 160.948,271.255 154.490 C 257.995 141.462,232.624 138.300,213.119 147.244 C 209.819 148.758,209.579 148.810,208.490 148.247 C 206.241 147.084,206.173 146.691,207.699 143.707 C 210.399 138.431,211.798 135.798,212.006 135.600 C 212.121 135.490,212.840 134.140,213.603 132.600 C 214.366 131.060,215.577 128.748,216.295 127.462 C 217.013 126.175,217.600 124.984,217.600 124.813 C 217.600 124.643,214.135 124.391,209.900 124.254 C 205.665 124.117,200.104 123.892,197.543 123.754 L 192.885 123.503 192.649 119.051 C 192.519 116.603,192.297 111.045,192.155 106.700 C 191.901 98.909,191.729 98.084,190.580 99.154 C 190.371 99.348,188.580 100.363,186.600 101.407 C 184.620 102.452,181.290 104.214,179.200 105.323 C 173.345 108.429,170.228 109.997,169.909 109.999 C 169.484 110.001,162.400 99.046,162.400 98.388 C 162.400 98.174,162.241 98.000,162.047 98.000 C 161.852 98.000,161.593 97.685,161.471 97.300 C 161.183 96.391,159.988 94.447,159.100 93.442 C 158.715 93.006,158.400 92.413,158.400 92.125 C 158.400 91.836,158.220 91.600,158.000 91.600 C 157.780 91.600,157.594 91.375,157.587 91.100 C 157.526 88.706,156.433 89.158,154.292 92.462 M164.000 116.586 C 166.955 117.147,168.493 117.527,171.147 118.352 C 173.184 118.986,180.000 122.447,180.000 122.848 C 180.000 123.042,180.225 123.200,180.500 123.200 C 180.775 123.201,181.487 123.606,182.082 124.100 C 182.677 124.595,184.027 125.713,185.082 126.584 C 187.844 128.865,193.199 135.010,193.200 135.900 C 193.200 136.175,193.335 136.401,193.500 136.403 C 193.665 136.405,194.001 136.810,194.246 137.303 C 194.491 137.796,195.280 139.370,195.998 140.800 C 198.091 144.963,198.918 147.463,199.997 152.889 C 200.531 155.575,200.556 155.521,197.196 159.058 C 195.764 160.566,194.055 162.520,193.399 163.400 C 192.742 164.280,192.113 165.090,192.002 165.200 C 191.890 165.310,191.544 165.895,191.232 166.500 C 190.480 167.958,189.765 167.890,186.741 166.074 C 185.343 165.235,183.570 164.305,182.800 164.007 C 182.030 163.710,181.220 163.349,181.000 163.205 C 180.780 163.062,179.790 162.711,178.800 162.426 C 177.810 162.142,176.640 161.764,176.200 161.586 C 172.825 160.226,158.473 160.219,155.000 161.576 C 154.560 161.748,153.480 162.109,152.600 162.378 C 145.651 164.500,136.229 171.128,132.667 176.400 C 132.296 176.950,131.508 178.120,130.917 179.000 C 129.245 181.490,126.994 186.006,126.381 188.100 C 125.488 191.152,124.253 190.661,120.600 185.797 C 111.086 173.132,109.692 154.197,117.215 139.800 C 118.594 137.160,119.350 135.845,119.626 135.600 C 119.751 135.490,120.419 134.568,121.110 133.551 C 122.594 131.371,126.362 127.471,128.609 125.790 C 129.484 125.135,130.548 124.285,130.975 123.900 C 131.402 123.515,131.987 123.200,132.275 123.200 C 132.564 123.200,132.800 123.020,132.800 122.800 C 132.800 122.580,133.055 122.400,133.367 122.400 C 133.678 122.400,133.993 122.264,134.067 122.098 C 134.353 121.450,141.412 118.324,144.400 117.521 C 150.140 115.980,158.668 115.573,164.000 116.586 " stroke="none" fill="#fcf7eb" fill-rule="evenodd"></path><path id="path2" d="M150.600 117.047 C 148.141 117.418,143.928 118.434,142.291 119.051 C 139.518 120.096,137.064 121.183,136.000 121.836 C 135.450 122.173,134.685 122.549,134.300 122.671 C 133.915 122.793,133.600 123.052,133.600 123.247 C 133.600 123.441,133.375 123.603,133.100 123.607 C 132.236 123.620,127.101 128.004,123.964 131.408 C 112.616 143.718,109.898 163.764,117.512 179.000 C 120.900 185.781,125.600 191.343,125.600 188.572 C 125.600 188.060,126.130 186.734,127.748 183.200 C 128.289 182.017,130.466 178.287,130.782 178.000 C 130.903 177.890,131.520 177.036,132.153 176.103 C 135.533 171.121,147.496 162.400,150.951 162.400 C 151.282 162.400,151.664 162.220,151.800 162.000 C 151.936 161.780,152.476 161.600,153.000 161.600 C 153.524 161.600,154.052 161.439,154.174 161.242 C 155.198 159.584,176.002 159.584,177.026 161.242 C 177.148 161.439,177.676 161.600,178.200 161.600 C 178.724 161.600,179.264 161.780,179.400 162.000 C 179.536 162.220,179.954 162.400,180.330 162.400 C 181.145 162.400,185.636 164.539,187.593 165.860 C 188.971 166.790,190.400 167.103,190.400 166.475 C 190.400 166.297,190.720 165.802,191.111 165.375 C 191.502 164.949,192.263 163.970,192.802 163.200 C 193.341 162.430,194.147 161.419,194.591 160.953 C 199.349 155.970,199.200 156.192,199.200 154.100 C 199.200 153.011,199.041 151.598,198.847 150.960 C 198.652 150.322,198.272 148.990,198.001 148.000 C 197.730 147.010,197.349 145.795,197.154 145.300 C 196.959 144.805,196.644 143.995,196.454 143.500 C 195.701 141.546,194.976 140.128,193.912 138.528 C 193.301 137.608,192.800 136.740,192.800 136.598 C 192.800 136.087,189.069 131.505,186.906 129.359 C 181.044 123.544,175.544 120.432,166.800 117.984 C 163.849 117.157,153.741 116.573,150.600 117.047 " stroke="none" fill="#fcac04" fill-rule="evenodd"></path><path id="path3" d="M155.920 89.091 C 155.202 89.910,147.688 101.758,147.036 103.097 C 146.796 103.590,146.465 103.995,146.300 103.997 C 146.135 103.999,146.000 104.190,146.000 104.422 C 146.000 104.654,145.274 105.914,144.386 107.221 L 142.771 109.598 140.086 108.147 C 134.987 105.392,126.298 100.771,122.884 98.998 C 120.220 97.615,120.562 96.263,119.960 110.543 C 119.630 118.370,119.286 122.933,119.020 123.014 C 118.789 123.084,113.291 123.343,106.802 123.588 C 93.437 124.095,93.983 123.938,95.532 126.834 C 96.169 128.025,97.366 130.260,98.191 131.800 C 99.459 134.166,102.213 139.379,105.255 145.171 L 105.976 146.543 104.678 147.371 C 103.964 147.827,103.025 148.409,102.590 148.665 C 102.156 148.921,98.380 151.280,94.200 153.907 C 90.020 156.535,86.183 158.903,85.674 159.170 C 84.437 159.819,84.778 160.180,89.312 163.025 C 98.054 168.508,100.757 170.216,103.324 171.876 L 106.048 173.638 104.679 176.119 C 103.299 178.620,101.525 181.916,98.394 187.800 C 97.457 189.560,96.176 191.963,95.546 193.141 C 94.915 194.318,94.412 195.668,94.427 196.141 C 94.452 196.942,94.484 196.932,94.887 196.000 C 95.589 194.380,96.579 192.405,98.398 189.000 C 99.338 187.240,101.140 183.820,102.402 181.400 C 103.663 178.980,105.079 176.320,105.548 175.488 C 106.722 173.404,106.731 173.422,103.700 171.446 C 100.277 169.215,93.430 164.945,91.602 163.902 C 90.833 163.463,89.451 162.585,88.530 161.952 C 87.609 161.318,86.683 160.800,86.471 160.800 C 86.259 160.800,85.982 160.530,85.855 160.200 C 85.729 159.870,85.807 159.600,86.029 159.600 C 86.252 159.600,86.651 159.415,86.917 159.188 C 87.479 158.709,92.288 155.681,100.549 150.603 C 106.914 146.691,106.825 146.805,105.463 144.314 C 104.948 143.371,103.301 140.260,101.804 137.400 C 100.306 134.540,98.630 131.390,98.080 130.400 C 97.529 129.410,96.587 127.678,95.987 126.550 L 94.895 124.500 102.748 124.256 C 114.486 123.891,119.588 123.543,119.869 123.088 C 120.008 122.863,120.279 117.362,120.470 110.863 C 120.662 104.365,120.902 98.965,121.002 98.864 C 121.175 98.691,123.516 99.849,128.311 102.479 C 129.473 103.116,131.903 104.414,133.711 105.365 C 139.734 108.530,141.778 109.649,142.256 110.046 C 142.818 110.513,143.811 109.294,146.689 104.600 C 155.488 90.250,156.363 89.001,157.015 89.862 C 157.323 90.268,157.580 90.825,157.587 91.100 C 157.594 91.375,157.780 91.600,158.000 91.600 C 158.220 91.600,158.400 91.836,158.400 92.125 C 158.400 92.413,158.715 93.006,159.100 93.442 C 159.988 94.447,161.183 96.391,161.471 97.300 C 161.593 97.685,161.852 98.000,162.047 98.000 C 162.241 98.000,162.400 98.174,162.400 98.388 C 162.400 99.046,169.484 110.001,169.909 109.999 C 170.228 109.997,173.345 108.429,179.200 105.323 C 181.290 104.214,184.620 102.452,186.600 101.407 C 188.580 100.363,190.371 99.348,190.580 99.154 C 191.729 98.084,191.901 98.909,192.155 106.700 C 192.297 111.045,192.519 116.603,192.649 119.051 L 192.885 123.503 197.543 123.754 C 200.104 123.892,205.665 124.117,209.900 124.254 C 214.135 124.391,217.600 124.643,217.600 124.813 C 217.600 124.984,217.013 126.175,216.295 127.462 C 215.577 128.748,214.366 131.060,213.603 132.600 C 212.840 134.140,212.121 135.490,212.006 135.600 C 211.798 135.798,210.399 138.431,207.699 143.707 C 206.171 146.695,206.240 147.083,208.508 148.256 C 210.200 149.131,210.288 148.649,208.617 147.663 C 206.903 146.651,206.876 146.249,208.347 143.525 C 209.505 141.380,216.908 127.444,217.863 125.609 C 218.147 125.065,218.249 124.491,218.089 124.336 C 217.813 124.065,200.689 123.200,195.615 123.200 L 193.200 123.200 193.202 120.100 C 193.206 115.160,192.324 98.629,192.040 98.311 C 191.897 98.151,191.335 98.255,190.791 98.541 C 189.324 99.311,183.006 102.679,179.800 104.399 C 171.648 108.773,170.353 109.366,169.787 108.985 C 169.287 108.649,160.066 94.214,157.914 90.400 C 156.793 88.411,156.616 88.295,155.920 89.091 M153.500 116.297 C 155.095 116.373,157.705 116.373,159.300 116.297 C 160.895 116.221,159.590 116.159,156.400 116.159 C 153.210 116.159,151.905 116.221,153.500 116.297 M148.000 116.661 C 145.797 116.996,140.256 118.789,140.541 119.074 C 140.629 119.162,141.398 118.978,142.250 118.665 C 144.025 118.013,146.210 117.416,148.800 116.873 C 150.555 116.505,149.997 116.357,148.000 116.661 M164.000 116.854 C 167.921 117.717,171.449 118.827,174.500 120.157 C 175.325 120.517,176.000 120.724,176.000 120.617 C 176.000 120.326,172.051 118.623,170.000 118.029 C 169.010 117.742,167.750 117.361,167.200 117.183 C 166.650 117.004,165.300 116.768,164.200 116.658 L 162.200 116.457 164.000 116.854 M137.870 119.879 C 137.248 120.205,136.826 120.559,136.932 120.665 C 137.038 120.771,137.816 120.493,138.662 120.047 C 139.508 119.600,139.930 119.246,139.600 119.260 C 139.270 119.274,138.491 119.552,137.870 119.879 M134.900 121.344 C 134.405 121.589,134.000 121.933,134.000 122.109 C 134.000 122.414,134.698 122.103,136.000 121.220 C 136.781 120.689,136.056 120.772,134.900 121.344 M176.433 120.946 C 177.208 121.626,180.000 123.139,180.000 122.879 C 180.000 122.697,179.263 122.155,178.362 121.674 C 176.900 120.894,175.976 120.545,176.433 120.946 M131.029 123.809 C 130.605 124.129,130.338 124.471,130.435 124.569 C 130.532 124.666,131.059 124.402,131.606 123.982 C 132.153 123.561,132.420 123.220,132.200 123.222 C 131.980 123.224,131.453 123.488,131.029 123.809 M181.194 123.982 C 181.741 124.402,182.268 124.666,182.365 124.569 C 182.591 124.342,181.129 123.227,180.600 123.222 C 180.380 123.220,180.647 123.561,181.194 123.982 M128.191 126.092 C 125.833 128.007,122.472 131.555,121.079 133.600 C 120.405 134.590,119.751 135.490,119.626 135.600 C 118.439 136.649,113.595 147.328,114.085 147.818 C 114.202 147.935,114.608 147.079,114.987 145.916 C 117.028 139.657,121.329 133.049,126.527 128.189 C 130.294 124.666,130.924 123.873,128.191 126.092 M185.077 126.960 C 186.439 128.204,188.483 130.252,189.620 131.511 C 190.756 132.770,191.394 133.351,191.037 132.803 C 190.127 131.404,185.242 126.479,183.800 125.507 C 183.140 125.062,183.714 125.716,185.077 126.960 M192.245 135.012 C 192.610 135.569,192.986 135.947,193.082 135.851 C 193.319 135.614,192.284 134.000,191.895 134.000 C 191.722 134.000,191.880 134.456,192.245 135.012 M194.586 138.700 C 194.935 139.415,195.306 140.000,195.410 140.000 C 195.808 140.000,195.552 139.363,194.767 138.400 L 193.952 137.400 194.586 138.700 M195.617 140.700 C 195.626 140.865,195.978 141.630,196.400 142.400 C 197.321 144.082,197.465 143.455,196.571 141.661 C 195.967 140.452,195.581 140.063,195.617 140.700 M231.200 141.822 C 224.956 142.547,222.473 143.008,222.843 143.375 C 222.929 143.460,223.810 143.360,224.800 143.151 C 231.266 141.789,237.569 141.620,245.400 142.599 C 246.412 142.725,246.779 142.671,246.400 142.451 C 246.070 142.259,244.180 141.981,242.200 141.831 C 240.220 141.682,237.970 141.498,237.200 141.423 C 236.430 141.348,233.730 141.528,231.200 141.822 M247.233 142.943 C 247.325 143.022,248.120 143.197,249.000 143.332 C 250.090 143.499,250.409 143.455,250.000 143.195 C 249.453 142.846,246.845 142.609,247.233 142.943 M220.190 144.016 C 220.021 144.289,220.323 144.338,221.066 144.160 C 222.599 143.792,222.744 143.600,221.490 143.600 C 220.917 143.600,220.332 143.787,220.190 144.016 M254.000 144.811 C 257.825 146.142,257.719 146.116,257.449 145.679 C 257.340 145.503,256.328 145.107,255.200 144.800 C 254.072 144.493,253.060 144.097,252.951 143.921 C 252.842 143.744,252.268 143.606,251.676 143.614 C 251.006 143.622,251.884 144.074,254.000 144.811 M197.200 144.094 C 197.200 144.234,197.400 144.855,197.646 145.474 C 197.891 146.093,198.416 147.860,198.814 149.400 C 199.230 151.012,199.550 151.741,199.568 151.119 C 199.586 150.524,199.439 149.624,199.242 149.119 C 199.045 148.613,198.653 147.390,198.372 146.400 C 197.921 144.813,197.200 143.394,197.200 144.094 M217.600 144.795 C 217.270 144.986,216.659 145.250,216.243 145.381 C 215.826 145.512,215.578 145.711,215.690 145.823 C 215.803 145.936,216.773 145.672,217.847 145.236 C 218.921 144.800,219.440 144.444,219.000 144.445 C 218.560 144.446,217.930 144.603,217.600 144.795 M212.462 147.052 C 211.286 147.605,210.413 148.146,210.522 148.255 C 210.631 148.364,211.773 147.910,213.060 147.246 C 215.888 145.787,215.454 145.646,212.462 147.052 M258.033 146.132 C 258.125 146.205,259.820 147.114,261.800 148.152 C 263.780 149.191,264.958 149.688,264.417 149.256 C 263.406 148.449,258.705 146.000,258.168 146.000 C 258.002 146.000,257.942 146.059,258.033 146.132 M113.429 149.829 C 113.281 150.415,113.251 150.984,113.361 151.094 C 113.471 151.204,113.681 150.815,113.829 150.229 C 113.976 149.642,114.006 149.073,113.896 148.963 C 113.786 148.853,113.576 149.242,113.429 149.829 M265.600 150.158 C 265.600 150.245,266.468 150.874,267.530 151.555 C 273.209 155.199,281.314 164.999,285.102 172.800 C 286.275 175.215,287.000 175.968,288.173 175.987 C 293.527 176.075,304.786 183.579,309.199 190.000 C 309.728 190.770,310.268 191.490,310.399 191.600 C 310.840 191.972,313.551 197.788,314.128 199.600 C 315.615 204.272,315.796 205.536,315.762 211.000 C 315.721 217.747,315.007 221.012,312.351 226.600 C 311.828 227.700,311.265 228.660,311.100 228.733 C 310.935 228.807,310.799 229.077,310.798 229.333 C 310.794 230.579,305.659 236.452,302.433 238.902 C 301.205 239.835,300.110 240.688,300.000 240.799 C 299.744 241.056,298.191 241.941,296.400 242.851 C 293.237 244.457,291.404 245.200,290.605 245.200 C 290.140 245.200,289.589 245.362,289.380 245.559 C 289.010 245.909,287.474 246.192,283.412 246.660 C 281.419 246.890,280.931 247.246,279.935 249.200 C 279.654 249.750,278.924 250.952,278.312 251.872 C 277.701 252.792,277.200 253.737,277.200 253.972 C 277.200 254.207,277.059 254.400,276.886 254.400 C 276.714 254.400,276.277 254.895,275.915 255.500 C 275.261 256.593,274.096 258.080,271.800 260.746 C 268.033 265.122,260.110 270.938,253.800 273.959 C 251.820 274.906,249.887 275.843,249.505 276.041 C 249.123 276.238,248.459 276.400,248.029 276.400 C 247.599 276.400,247.136 276.580,247.000 276.800 C 246.864 277.020,246.234 277.200,245.600 277.200 C 244.966 277.200,244.348 277.360,244.227 277.556 C 244.106 277.751,243.331 278.027,242.504 278.169 C 241.677 278.311,239.920 278.610,238.600 278.834 C 237.280 279.059,233.320 279.390,229.800 279.571 L 223.400 279.900 230.600 279.778 C 251.493 279.424,269.108 268.940,279.795 250.500 C 281.600 247.387,281.785 247.200,283.071 247.200 C 287.633 247.200,294.924 244.696,299.800 241.455 C 325.226 224.556,320.267 185.240,291.600 176.452 C 287.036 175.053,286.796 174.875,285.072 171.599 C 282.699 167.089,279.185 162.148,275.819 158.587 C 274.162 156.834,272.799 155.310,272.789 155.200 C 272.744 154.675,265.600 149.665,265.600 150.158 M112.593 154.114 C 112.444 155.313,112.395 156.633,112.485 157.047 C 112.575 157.461,112.789 156.571,112.960 155.069 C 113.131 153.566,113.179 152.246,113.068 152.135 C 112.957 152.024,112.743 152.914,112.593 154.114 M199.680 153.000 C 199.680 153.440,199.824 154.250,200.000 154.800 C 200.254 155.592,200.320 155.633,200.320 155.000 C 200.320 154.560,200.176 153.750,200.000 153.200 C 199.746 152.408,199.680 152.367,199.680 153.000 M197.410 158.390 C 196.110 159.704,195.125 160.834,195.223 160.902 C 195.320 160.969,196.465 159.894,197.766 158.512 C 200.771 155.322,200.529 155.238,197.410 158.390 M164.100 160.291 C 164.925 160.378,166.275 160.378,167.100 160.291 C 167.925 160.205,167.250 160.134,165.600 160.134 C 163.950 160.134,163.275 160.205,164.100 160.291 M112.497 164.000 C 112.496 164.990,112.632 166.340,112.800 167.000 L 113.105 168.200 113.123 167.000 C 113.133 166.340,112.997 164.990,112.820 164.000 L 112.500 162.200 112.497 164.000 M141.322 167.829 L 140.200 168.858 141.500 167.954 C 142.215 167.457,142.800 166.993,142.800 166.925 C 142.800 166.609,142.358 166.880,141.322 167.829 M188.741 167.301 C 188.943 167.503,189.533 167.601,190.054 167.519 C 190.855 167.393,190.798 167.337,189.687 167.152 C 188.893 167.021,188.519 167.079,188.741 167.301 M113.256 169.200 C 113.256 169.530,113.411 170.160,113.600 170.600 C 113.817 171.104,113.944 171.178,113.944 170.800 C 113.944 170.470,113.789 169.840,113.600 169.400 C 113.383 168.896,113.256 168.822,113.256 169.200 M136.000 172.200 C 135.028 173.190,134.323 174.000,134.433 174.000 C 134.543 174.000,135.428 173.190,136.400 172.200 C 137.372 171.210,138.077 170.400,137.967 170.400 C 137.857 170.400,136.972 171.210,136.000 172.200 M114.022 172.500 C 114.049 173.104,115.546 176.737,115.578 176.275 C 115.609 175.814,114.339 172.000,114.154 172.000 C 114.069 172.000,114.010 172.225,114.022 172.500 M131.999 176.900 C 131.410 177.704,131.313 177.984,131.745 177.633 C 132.401 177.100,133.393 175.600,133.089 175.600 C 133.013 175.600,132.522 176.185,131.999 176.900 M115.600 177.011 C 115.600 177.677,118.994 183.620,120.709 185.960 C 122.698 188.672,122.238 187.569,119.974 184.200 C 118.860 182.542,117.497 180.198,116.945 178.993 C 116.051 177.040,115.600 176.375,115.600 177.011 M130.553 178.900 C 129.176 181.236,129.086 181.435,129.787 180.600 C 130.600 179.632,131.300 178.400,131.038 178.400 C 130.933 178.400,130.715 178.625,130.553 178.900 M91.009 199.679 C 88.315 202.589,87.300 204.000,87.900 204.000 C 88.080 204.000,88.543 203.467,88.928 202.815 C 89.698 201.510,89.808 201.379,92.383 198.673 C 93.364 197.643,94.056 196.800,93.921 196.800 C 93.786 196.800,92.475 198.096,91.009 199.679 M86.479 205.861 C 86.052 206.708,85.582 207.850,85.433 208.400 C 85.285 208.950,85.709 208.332,86.375 207.026 C 87.040 205.720,87.511 204.577,87.420 204.487 C 87.330 204.396,86.906 205.015,86.479 205.861 M84.600 210.400 C 84.450 210.873,84.417 211.350,84.527 211.460 C 84.637 211.570,84.850 211.273,85.000 210.800 C 85.150 210.327,85.183 209.850,85.073 209.740 C 84.963 209.630,84.750 209.927,84.600 210.400 M83.889 213.200 C 83.736 213.750,83.627 214.740,83.646 215.400 C 83.677 216.492,83.714 216.458,84.052 215.011 C 84.475 213.206,84.331 211.611,83.889 213.200 M83.628 220.833 C 83.644 221.805,83.814 222.960,84.008 223.400 C 84.231 223.908,84.274 223.324,84.124 221.800 C 83.840 218.899,83.590 218.412,83.628 220.833 M84.412 225.200 C 84.412 225.530,84.587 226.070,84.800 226.400 C 85.145 226.933,85.188 226.933,85.188 226.400 C 85.188 226.070,85.013 225.530,84.800 225.200 C 84.455 224.667,84.412 224.667,84.412 225.200 M85.417 228.000 C 86.228 231.206,91.060 237.368,95.555 240.927 C 97.665 242.599,102.545 245.039,105.600 245.952 C 106.370 246.182,107.630 246.564,108.400 246.802 C 110.545 247.464,118.250 247.740,121.539 247.273 C 124.991 246.782,125.214 246.839,126.173 248.462 C 127.873 251.339,136.675 258.800,138.370 258.800 C 138.593 258.800,139.417 259.160,140.200 259.600 C 140.983 260.040,141.891 260.400,142.218 260.400 C 142.544 260.400,143.123 260.559,143.505 260.753 C 145.915 261.977,155.814 262.490,159.354 261.574 C 161.998 260.890,163.742 260.371,164.600 260.013 C 167.569 258.773,169.587 257.757,169.593 257.498 C 169.597 257.333,168.745 257.626,167.700 258.150 C 164.503 259.754,163.649 260.063,159.354 261.174 C 157.364 261.689,148.181 261.741,146.560 261.247 C 145.922 261.052,144.590 260.659,143.600 260.372 C 137.054 258.476,130.154 253.483,125.800 247.492 L 125.000 246.391 121.200 246.838 C 117.339 247.293,110.793 247.072,108.600 246.414 C 107.940 246.216,106.590 245.830,105.600 245.555 C 104.610 245.281,103.620 244.938,103.400 244.795 C 103.180 244.651,102.370 244.292,101.600 243.996 C 95.825 241.778,89.724 235.881,86.294 229.200 C 85.673 227.990,85.278 227.450,85.417 228.000 M175.708 252.458 C 174.219 253.809,172.321 255.366,171.492 255.916 C 170.662 256.467,170.073 257.006,170.182 257.115 C 170.450 257.384,174.232 254.427,176.181 252.424 C 177.649 250.917,178.800 250.348,178.800 251.131 C 178.800 253.124,189.960 265.779,193.955 268.317 C 194.530 268.683,195.090 269.084,195.200 269.210 C 196.755 270.986,205.790 275.599,210.930 277.242 C 215.763 278.785,225.916 280.611,222.000 279.232 C 221.450 279.038,220.383 278.862,219.628 278.840 C 218.874 278.818,217.704 278.632,217.028 278.427 C 216.353 278.222,214.990 277.841,214.000 277.581 C 211.990 277.052,210.248 276.498,208.900 275.960 C 208.405 275.762,207.595 275.439,207.100 275.242 C 196.480 271.016,183.451 259.761,179.387 251.300 C 178.601 249.664,178.885 249.574,175.708 252.458 " stroke="none" fill="#fce59c" fill-rule="evenodd"></path><path id="path4" d="M155.227 89.162 C 154.044 90.823,154.211 91.251,155.436 89.696 C 156.002 88.979,156.657 88.512,156.894 88.658 C 157.149 88.815,157.207 88.736,157.038 88.462 C 156.587 87.731,156.117 87.913,155.227 89.162 M153.200 92.400 C 152.927 93.060,152.545 93.600,152.351 93.600 C 152.158 93.600,152.000 93.777,152.000 93.992 C 152.000 94.208,151.403 95.333,150.673 96.492 C 148.296 100.269,147.531 101.600,147.738 101.600 C 147.850 101.600,149.090 99.755,150.494 97.500 C 151.897 95.245,153.371 92.905,153.769 92.300 C 154.167 91.695,154.313 91.200,154.095 91.200 C 153.876 91.200,153.473 91.740,153.200 92.400 M159.445 93.012 C 159.810 93.569,160.186 93.947,160.282 93.851 C 160.519 93.614,159.484 92.000,159.095 92.000 C 158.922 92.000,159.080 92.456,159.445 93.012 M162.056 97.100 C 165.295 102.376,169.312 108.661,169.662 109.000 C 170.191 109.513,167.870 105.537,166.357 103.338 C 165.721 102.413,165.200 101.551,165.200 101.423 C 165.200 101.101,161.524 95.600,161.309 95.600 C 161.213 95.600,161.549 96.275,162.056 97.100 M120.170 98.133 C 120.058 98.427,120.027 100.182,120.101 102.033 L 120.237 105.400 120.319 101.673 C 120.404 97.763,120.692 97.400,122.600 98.789 C 123.554 99.484,131.721 103.584,131.000 103.006 C 130.560 102.653,128.670 101.578,126.800 100.616 C 124.930 99.654,122.860 98.583,122.200 98.236 C 120.733 97.465,120.433 97.449,120.170 98.133 M190.126 98.380 C 189.425 98.807,187.175 100.022,185.126 101.079 C 183.077 102.135,181.340 103.135,181.267 103.300 C 181.193 103.465,180.889 103.600,180.590 103.600 C 180.292 103.600,179.937 103.778,179.803 103.995 C 179.550 104.404,180.660 104.121,181.400 103.588 C 181.729 103.351,185.626 101.257,190.771 98.552 C 191.306 98.271,191.891 98.132,192.071 98.244 C 192.252 98.356,192.400 98.257,192.400 98.024 C 192.400 97.382,191.542 97.516,190.126 98.380 M192.675 105.800 C 192.798 109.760,192.967 113.075,193.049 113.167 C 193.363 113.513,193.138 101.728,192.802 100.200 C 192.581 99.192,192.534 101.263,192.675 105.800 M146.911 102.500 C 146.194 103.428,145.951 104.000,146.276 103.997 C 146.454 103.995,146.808 103.545,147.062 102.997 C 147.568 101.906,147.512 101.723,146.911 102.500 M134.000 104.785 C 135.164 105.650,137.600 106.812,137.600 106.502 C 137.600 106.330,136.835 105.836,135.900 105.405 C 133.661 104.373,133.277 104.248,134.000 104.785 M177.800 104.953 C 177.360 105.214,176.218 105.839,175.261 106.342 C 174.305 106.844,173.597 107.330,173.688 107.421 C 173.870 107.603,179.200 104.850,179.200 104.573 C 179.200 104.296,178.662 104.442,177.800 104.953 M119.500 109.561 C 119.335 111.630,119.200 115.443,119.200 118.035 C 119.200 122.606,119.173 122.752,118.300 122.912 C 117.517 123.056,117.530 123.072,118.400 123.039 L 119.400 123.000 119.702 116.400 C 120.074 108.292,119.946 103.971,119.500 109.561 M144.073 107.000 C 143.822 107.550,143.683 108.000,143.763 108.000 C 143.843 108.000,144.203 107.550,144.563 107.000 C 144.924 106.450,145.063 106.000,144.873 106.000 C 144.684 106.000,144.323 106.450,144.073 107.000 M141.767 109.006 C 142.508 109.567,143.994 109.061,143.388 108.455 C 143.261 108.327,143.009 108.462,142.828 108.754 C 142.598 109.126,142.418 109.153,142.226 108.843 C 142.076 108.599,141.738 108.406,141.476 108.413 C 141.214 108.420,141.345 108.687,141.767 109.006 M193.200 122.800 C 193.200 123.020,193.695 123.187,194.300 123.172 C 195.275 123.147,195.309 123.105,194.600 122.800 C 193.507 122.331,193.200 122.331,193.200 122.800 M95.929 123.484 C 95.340 123.574,94.620 123.952,94.329 124.324 C 93.866 124.916,93.879 124.939,94.434 124.506 C 94.849 124.182,97.808 123.893,103.034 123.666 L 111.000 123.321 104.000 123.320 C 100.150 123.320,96.518 123.394,95.929 123.484 M209.787 123.667 C 214.179 123.858,217.910 124.150,218.076 124.316 C 218.404 124.644,218.431 124.586,215.044 130.900 C 213.776 133.265,212.887 135.195,213.069 135.188 C 213.251 135.182,213.959 134.057,214.642 132.688 C 215.325 131.320,216.582 128.907,217.436 127.327 C 218.289 125.747,218.863 124.329,218.710 124.176 C 218.072 123.539,214.612 123.237,208.400 123.278 L 201.800 123.321 209.787 123.667 M96.018 128.600 C 96.018 128.820,96.370 129.450,96.800 130.000 C 97.230 130.550,97.582 130.820,97.582 130.600 C 97.582 130.380,97.230 129.750,96.800 129.200 C 96.370 128.650,96.018 128.380,96.018 128.600 M123.375 131.300 L 122.200 132.600 123.500 131.425 C 124.215 130.779,124.800 130.194,124.800 130.125 C 124.800 129.816,124.470 130.088,123.375 131.300 M97.600 131.511 C 97.600 131.682,97.845 132.177,98.145 132.611 C 98.444 133.045,99.806 135.560,101.170 138.200 C 102.534 140.840,103.844 143.180,104.081 143.400 C 104.318 143.620,103.283 141.460,101.780 138.600 C 100.277 135.740,98.799 132.905,98.495 132.300 C 97.948 131.213,97.600 130.906,97.600 131.511 M210.584 139.260 C 209.995 140.437,209.696 141.220,209.919 141.000 C 210.578 140.350,212.056 137.522,211.846 137.313 C 211.741 137.207,211.172 138.083,210.584 139.260 M230.827 141.575 C 230.469 141.801,231.220 141.854,232.827 141.715 C 234.242 141.592,235.475 141.426,235.567 141.346 C 235.941 141.019,231.356 141.240,230.827 141.575 M237.800 141.400 C 238.771 141.732,242.353 141.847,242.163 141.540 C 242.047 141.353,240.928 141.214,239.676 141.232 C 238.424 141.249,237.580 141.325,237.800 141.400 M104.400 144.287 C 104.400 144.543,104.580 144.864,104.800 145.000 C 105.772 145.601,105.047 146.691,102.696 148.162 C 97.922 151.150,94.194 153.458,93.220 154.027 C 92.132 154.664,90.230 156.315,91.232 155.754 C 91.580 155.559,94.152 153.960,96.950 152.200 C 103.099 148.331,104.851 147.253,105.475 146.958 C 105.736 146.835,105.841 146.434,105.708 146.067 C 105.336 145.039,104.400 143.765,104.400 144.287 M207.355 146.726 C 207.948 147.687,210.053 148.510,210.546 147.975 C 210.889 147.603,210.876 147.553,210.493 147.769 C 210.214 147.927,209.327 147.649,208.522 147.152 C 207.717 146.654,207.192 146.463,207.355 146.726 M260.800 146.928 C 260.800 147.109,264.896 149.595,265.800 149.962 C 266.020 150.051,266.785 150.568,267.500 151.110 C 268.215 151.652,268.800 151.937,268.800 151.744 C 268.800 151.386,268.219 150.972,265.645 149.496 C 261.524 147.132,260.800 146.748,260.800 146.928 M270.600 153.348 C 271.480 154.140,272.349 154.791,272.531 154.794 C 272.713 154.797,272.353 154.391,271.731 153.891 C 269.640 152.209,268.986 151.895,270.600 153.348 M199.552 155.113 C 199.421 155.907,199.479 156.281,199.701 156.059 C 199.903 155.857,200.001 155.267,199.919 154.746 C 199.793 153.945,199.737 154.002,199.552 155.113 M272.809 155.200 C 272.808 155.310,274.280 156.930,276.079 158.800 C 277.879 160.670,279.095 161.840,278.783 161.400 C 278.061 160.383,272.810 154.933,272.809 155.200 M87.281 157.772 C 86.556 158.284,85.836 158.839,85.681 159.003 C 85.264 159.447,87.673 158.159,88.600 157.443 C 89.875 156.459,88.737 156.742,87.281 157.772 M112.528 160.000 C 112.528 161.430,112.601 162.015,112.689 161.300 C 112.778 160.585,112.778 159.415,112.689 158.700 C 112.601 157.985,112.528 158.570,112.528 160.000 M84.601 159.598 C 84.295 160.093,86.091 161.796,87.643 162.483 C 88.279 162.765,88.800 163.131,88.800 163.298 C 88.800 163.464,88.990 163.600,89.222 163.600 C 89.454 163.600,90.704 164.320,92.000 165.200 C 93.296 166.080,94.443 166.800,94.549 166.800 C 94.655 166.800,96.059 167.669,97.671 168.732 C 101.130 171.013,104.767 173.112,104.200 172.500 C 103.980 172.262,102.360 171.182,100.600 170.100 C 87.224 161.877,84.665 160.142,85.033 159.547 C 85.151 159.356,85.157 159.200,85.047 159.200 C 84.937 159.200,84.736 159.379,84.601 159.598 M160.705 160.283 C 161.202 160.379,161.922 160.375,162.305 160.275 C 162.687 160.175,162.280 160.096,161.400 160.101 C 160.520 160.105,160.207 160.187,160.705 160.283 M169.105 160.283 C 169.602 160.379,170.322 160.375,170.705 160.275 C 171.087 160.175,170.680 160.096,169.800 160.101 C 168.920 160.105,168.607 160.187,169.105 160.283 M281.377 165.500 C 282.551 167.205,284.192 169.921,285.023 171.535 C 286.523 174.445,287.899 175.852,288.887 175.484 C 289.383 175.299,289.114 175.139,287.459 174.635 C 287.161 174.544,286.351 173.329,285.658 171.935 C 284.224 169.046,282.429 165.896,282.049 165.600 C 281.908 165.490,281.344 164.726,280.796 163.903 C 280.248 163.079,279.675 162.404,279.522 162.403 C 279.369 162.401,280.204 163.795,281.377 165.500 M105.061 173.512 C 105.170 173.929,104.877 174.950,104.410 175.782 C 103.943 176.614,103.631 177.364,103.716 177.449 C 103.801 177.534,104.349 176.725,104.934 175.650 C 105.837 173.990,105.912 173.625,105.430 173.225 C 104.969 172.842,104.900 172.896,105.061 173.512 M290.400 176.000 C 291.176 176.501,291.600 176.501,291.600 176.000 C 291.600 175.780,291.195 175.603,290.700 175.606 C 289.972 175.611,289.915 175.686,290.400 176.000 M101.785 180.512 C 101.116 181.880,99.514 184.980,98.225 187.400 C 96.936 189.820,96.075 191.620,96.311 191.400 C 96.548 191.180,97.403 189.740,98.212 188.200 C 99.021 186.660,100.574 183.735,101.662 181.700 C 102.751 179.665,103.498 178.005,103.321 178.012 C 103.145 178.018,102.453 179.143,101.785 180.512 M298.200 179.273 C 298.640 179.520,299.540 180.093,300.200 180.545 C 301.180 181.218,301.295 181.238,300.829 180.658 C 300.515 180.267,299.759 179.689,299.149 179.374 C 297.849 178.701,297.026 178.614,298.200 179.273 M303.884 183.380 C 305.250 184.621,307.117 186.482,308.033 187.518 C 309.157 188.788,309.405 188.965,308.794 188.060 C 307.701 186.442,303.314 182.099,302.200 181.532 C 301.760 181.309,302.518 182.140,303.884 183.380 M310.245 190.612 C 310.610 191.169,310.986 191.547,311.082 191.451 C 311.319 191.214,310.284 189.600,309.895 189.600 C 309.722 189.600,309.880 190.056,310.245 190.612 M94.046 195.628 C 94.021 195.973,93.234 196.963,92.297 197.828 C 91.360 198.693,90.335 199.760,90.019 200.200 C 89.702 200.640,90.510 200.010,91.812 198.800 C 93.115 197.590,94.247 196.569,94.326 196.531 C 94.406 196.494,94.386 196.134,94.282 195.731 C 94.142 195.189,94.081 195.162,94.046 195.628 M314.546 199.050 C 315.993 203.736,316.200 205.263,316.200 211.272 C 316.200 214.755,316.346 217.283,316.529 216.957 C 316.995 216.123,316.600 204.958,316.028 202.800 C 315.766 201.810,315.451 200.503,315.329 199.895 C 315.207 199.287,314.929 198.680,314.711 198.545 C 314.476 198.400,314.409 198.606,314.546 199.050 M87.014 204.235 C 86.641 204.804,86.405 205.338,86.489 205.422 C 86.573 205.507,86.958 205.041,87.344 204.388 C 88.206 202.928,87.948 202.809,87.014 204.235 M85.067 207.867 C 84.920 208.013,84.811 208.508,84.825 208.967 C 84.849 209.733,84.882 209.723,85.234 208.842 C 85.626 207.863,85.544 207.389,85.067 207.867 M84.154 210.577 C 84.032 210.894,84.003 211.479,84.089 211.877 C 84.187 212.328,84.324 212.112,84.454 211.300 C 84.671 209.938,84.530 209.596,84.154 210.577 M83.443 213.433 C 83.099 214.330,83.152 222.506,83.506 223.062 C 83.668 223.316,83.800 221.111,83.800 218.162 C 83.800 215.213,83.774 212.800,83.743 212.800 C 83.711 212.800,83.576 213.085,83.443 213.433 M315.660 218.667 C 315.627 219.144,315.484 219.864,315.341 220.267 C 315.142 220.831,315.195 220.896,315.572 220.549 C 315.842 220.301,315.985 219.581,315.891 218.949 C 315.770 218.139,315.702 218.056,315.660 218.667 M314.339 223.235 C 313.975 224.316,313.801 225.200,313.951 225.200 C 314.258 225.200,315.383 221.649,315.149 221.417 C 315.067 221.336,314.702 222.154,314.339 223.235 M84.046 224.681 C 84.021 225.166,84.165 225.976,84.367 226.481 C 84.570 226.987,84.844 227.741,84.977 228.157 C 85.110 228.574,85.312 228.821,85.426 228.707 C 85.540 228.593,85.367 227.802,85.041 226.950 C 84.715 226.097,84.368 225.040,84.270 224.600 C 84.108 223.870,84.089 223.877,84.046 224.681 M312.267 227.841 C 311.669 229.062,311.330 229.967,311.515 229.852 C 311.998 229.554,313.764 226.031,313.542 225.809 C 313.440 225.706,312.866 226.621,312.267 227.841 M86.400 231.022 C 86.400 231.692,89.848 236.103,91.853 238.000 L 94.179 240.200 91.558 237.400 C 90.117 235.860,88.439 233.745,87.831 232.700 C 86.807 230.942,86.400 230.465,86.400 231.022 M305.916 236.428 C 301.903 240.543,301.643 241.176,305.476 237.500 C 307.668 235.398,309.983 232.729,309.527 232.828 C 309.457 232.843,307.832 234.463,305.916 236.428 M94.400 240.300 C 94.400 240.469,94.760 240.832,95.200 241.107 C 95.640 241.382,96.000 241.469,96.000 241.300 C 96.000 241.131,95.640 240.768,95.200 240.493 C 94.760 240.218,94.400 240.131,94.400 240.300 M300.794 240.818 C 300.247 241.239,299.980 241.580,300.200 241.578 C 300.729 241.573,302.191 240.458,301.965 240.231 C 301.868 240.134,301.341 240.398,300.794 240.818 M290.000 246.000 C 289.176 246.264,289.141 246.326,289.800 246.354 C 290.240 246.373,290.870 246.213,291.200 246.000 C 291.901 245.547,291.414 245.547,290.000 246.000 M286.400 246.800 L 285.000 247.095 286.400 247.141 C 287.170 247.167,288.070 247.013,288.400 246.800 C 289.127 246.330,288.633 246.330,286.400 246.800 M124.266 247.200 C 124.742 247.392,125.314 247.874,125.536 248.271 C 125.758 248.668,126.042 248.892,126.166 248.768 C 126.537 248.396,124.824 246.798,124.084 246.825 C 123.561 246.845,123.603 246.933,124.266 247.200 M111.862 247.700 C 111.964 247.865,114.006 248.000,116.400 248.000 C 118.794 248.000,120.836 247.865,120.938 247.700 C 121.040 247.535,118.998 247.400,116.400 247.400 C 113.802 247.400,111.760 247.535,111.862 247.700 M281.149 248.100 C 280.743 248.861,280.756 248.931,281.235 248.554 C 281.546 248.308,282.340 247.917,283.000 247.685 L 284.200 247.263 282.914 247.232 C 281.970 247.208,281.501 247.439,281.149 248.100 M127.080 250.212 C 128.586 252.362,134.570 257.564,135.019 257.114 C 135.128 257.006,134.448 256.414,133.508 255.798 C 132.569 255.183,130.547 253.401,129.015 251.840 C 127.484 250.278,126.613 249.546,127.080 250.212 M279.821 250.512 C 279.415 251.221,278.388 252.835,277.538 254.100 C 276.689 255.365,276.130 256.398,276.297 256.397 C 276.595 256.393,279.314 252.365,280.307 250.456 C 281.071 248.988,280.667 249.035,279.821 250.512 M174.800 253.682 C 173.150 255.246,172.216 256.247,172.725 255.907 C 173.234 255.567,174.656 254.345,175.884 253.192 L 178.117 251.094 178.869 252.047 L 179.622 253.000 179.147 251.900 C 178.480 250.356,178.177 250.481,174.800 253.682 M182.251 257.000 C 184.312 259.912,188.636 264.551,191.201 266.600 C 193.893 268.750,195.506 269.940,196.600 270.581 C 197.849 271.313,197.195 270.678,195.333 269.351 C 191.833 266.857,186.766 261.998,182.660 257.200 C 181.191 255.484,181.172 255.475,182.251 257.000 M274.221 258.600 C 273.410 259.590,272.861 260.400,273.002 260.400 C 273.352 260.400,274.055 259.643,275.140 258.100 C 276.463 256.219,275.939 256.504,274.221 258.600 M270.981 262.444 C 269.003 264.502,263.790 268.761,261.177 270.454 C 260.090 271.158,259.279 271.813,259.375 271.908 C 259.769 272.302,266.011 267.566,269.384 264.315 C 271.373 262.398,272.902 260.823,272.781 260.815 C 272.661 260.807,271.851 261.540,270.981 262.444 M145.400 261.600 C 145.536 261.820,146.042 261.987,146.524 261.972 C 147.369 261.945,147.371 261.931,146.600 261.600 C 145.499 261.127,145.108 261.127,145.400 261.600 M159.000 261.600 C 158.229 261.931,158.231 261.945,159.076 261.972 C 159.558 261.987,160.064 261.820,160.200 261.600 C 160.492 261.127,160.101 261.127,159.000 261.600 M150.800 262.153 C 150.800 262.493,152.705 262.642,153.427 262.359 C 153.974 262.145,153.703 262.048,152.500 262.028 C 151.565 262.013,150.800 262.069,150.800 262.153 M199.200 272.190 C 199.200 272.294,199.785 272.665,200.500 273.014 L 201.800 273.648 200.800 272.833 C 199.837 272.048,199.200 271.792,199.200 272.190 M247.400 277.200 C 246.629 277.531,246.631 277.545,247.476 277.572 C 247.958 277.587,248.464 277.420,248.600 277.200 C 248.892 276.727,248.501 276.727,247.400 277.200 M212.200 278.000 C 212.336 278.220,212.842 278.387,213.324 278.372 C 214.169 278.345,214.171 278.331,213.400 278.000 C 212.299 277.527,211.908 277.527,212.200 278.000 M244.800 278.000 L 243.800 278.320 244.876 278.360 C 245.468 278.382,246.064 278.220,246.200 278.000 C 246.481 277.545,246.220 277.545,244.800 278.000 M214.990 278.784 C 215.132 279.013,215.717 279.200,216.290 279.200 C 217.544 279.200,217.399 279.008,215.866 278.640 C 215.123 278.462,214.821 278.511,214.990 278.784 M241.600 278.800 L 240.600 279.120 241.676 279.160 C 242.268 279.182,242.864 279.020,243.000 278.800 C 243.281 278.345,243.020 278.345,241.600 278.800 M218.800 279.591 C 219.339 279.948,223.568 280.204,223.167 279.856 C 223.075 279.776,221.920 279.595,220.600 279.453 C 218.957 279.276,218.389 279.320,218.800 279.591 M236.800 279.600 L 235.000 279.880 237.076 279.940 C 238.218 279.973,239.264 279.820,239.400 279.600 C 239.665 279.172,239.555 279.172,236.800 279.600 M225.200 280.400 C 226.462 280.804,231.412 280.804,233.000 280.400 C 233.743 280.211,232.296 280.092,229.200 280.087 C 226.141 280.083,224.588 280.204,225.200 280.400 " stroke="none" fill="#fcda79" fill-rule="evenodd"></path></g></svg>